<svg xmlns="http://www.w3.org/2000/svg" width="405" height="347" fill="none"><g clip-path="url(#a)"><path stroke="url(#b)" stroke-width=".37" d="M-22-5.244h450M-22 32.571h450M-22 70.385h450m-450 37.814 450 .001m-450 37.814h450m-450 37.814 450 .001m-450 37.814h450m-450 37.814 450 .001m-450 37.814h450m-450 37.814h450M49.756-21v390M87.859-21v390m38.104-390v390m38.103-390v390M202.17-21v390m38.103-390v390m38.104-390v390M316.48-21v390m38.104-390v390m39.437-390v390M10.027-21v390" opacity=".5"/><path fill="#232323" d="M99.519 292.432c-.103.213-.4.241-.599.185-.493-.141-1.069.136-1.501-.197q-.01-.011-.019-.019c-.615-.204-.837-.995-.55-1.571.36-.729 1.2-.879 1.76-.291.52.551 1.344.998.909 1.893m1.401-4.146c.026-.154-.038-.311-.096-.45-.14-.353-.281-.566-.208-.96.07-.382.14-.742-.115-1.066-.164-.208-.451-.17-.648-.046-.112.07-.21.248-.27.36-.158.302-.476.37-.69.602-.553.595.147 1.785.596 2.321q.013.027.042.047.026.031.051.059c.559.726 1.244-.272 1.338-.867m.292 12.641c.281.173.718.194.933-.078.248-.314.078-.899.096-1.25.019-.42.11-.911-.18-1.258-.248-.293-.818-.431-1.146-.607-.372-.201-.767.028-1.027.3-.584.609.349 1.44.718 1.986a.1.1 0 0 0 .017.07c.185.305.271.64.589.837m.688 3.986c.491-.087 1.16-.803 1.179-1.316.009-.279-.131-.478-.335-.656-.283-.248-.641-.529-.978-.691-.804-.382-.792.899-.785 1.335a.13.13 0 0 0 .025.065c.078.513.351 1.357.894 1.263m.224 6.916c-.213.063-.463.476-.379.715-.021.065.014.149.106.149q.028 0 .06-.002c.031.105.017.241.071.337.096.181.276.246.47.27.528.063.947-.462.844-.968-.101-.487-.769-.62-1.172-.501m.248-17.678c-.271-.052-.58-.108-.762.15-.131.182.091.506.166.663.145.297-.059.597.14.838-.054.061-.023.134.031.166q.005.06.032.115c.047.101.237.19.33.223.423.142.695-.092 1.078-.246.714-.286.515-1.164.056-1.607-.276-.265-.72-.232-1.071-.302m1.588 15.912c-.498-.201-1.429-.194-1.829.223-.439.456.225.993.674 1.042q.013.004.023.005h.042q.02-.002.035-.007c.038.009.082.014.155.032.166.04.313.204.461.286.273.152.561.061.79-.122.48-.377.133-1.262-.351-1.459m-.713-8.474v.014c0 .005-.005.01-.005.017-.009.485-.175 1.044.452 1.133.425.064 1.092-.021 1.387-.367.392-.464-.295-.867-.655-.979-.375-.115-1.05-.398-1.179.182m3.524 8.968a7 7 0 0 0-.254-.431c-.274-.435 0-.672.17-1.023.084-.178.15-.365.138-.564-.021-.361-.503-.551-.772-.663-.442-.183-.839-.22-1.141.192-.187.255-.227.674-.355.962-.113.249-.321.42-.339.701-.026.405.346.862.643 1.182-.056.064-.028.192.079.192h.122c.089.115.159.291.271.422.311.356.87.101 1.202-.07s.412-.583.236-.9m.038-7.298c-.342-.154-.466-.513-.887-.468-.308.03-.491.384-.561.644-.07.255.038.445.192.635.094.115.58.745.884.794.009.009.019.021.03.028.637.447 1.17-.537 1.046-1.071-.08-.346-.428-.433-.704-.562m-.159 3.146a.1.1 0 0 0-.014.051c0 .101-.035.27.016.359.094.159.04.281.098.445.096.269.405.33.653.314.292-.024.409-.265.531-.497.154-.307.535-.333.694-.63.312-.571-.563-.782-.93-.806-.599-.042-.987.199-1.048.764m1.56-11.381c.072.047.14.162.241.127q.023-.009.039-.016c.826.306 1.394-1.408.276-1.462-.5-.023-1.054.293-.916.874.053.236.156.349.36.477m-.136 6.964v.016a.1.1 0 0 0 .005.028h.002q.005.02.019.04h.002q.01.015.024.023l.018.01.017.025a.12.12 0 0 0 .126.05c.346.142.748.072.992-.249.294-.388.336-.995-.117-1.269-.377-.225-1.083-.166-1.312.239-.19.328.035.768.224 1.087m1.415 24.323c.314-.79-.033-1.748-.762-2.169-.641-.373-1.743.143-1.949.834-.074.253-.18.655.022.885.123.143.273.213.446.283.129.049.435-.089.566-.021q.004.005.007.005a.1.1 0 0 1 .042.04c.04.079.18.07.201-.021.047.002.082.014.082.039 0 .045.035.101.085.108.133.021.145.487.432.492.332.009.697-.147.828-.475m-1.555-27.054a.11.11 0 0 0 .072.056.7.7 0 0 0 .173.178c.213.161.538.07.716.265.154.175.515.416.713.156.108-.14.117-.313.122-.484 0-.122-.117-.277-.049-.399.049-.089.119-.173.152-.276.086-.272.058-.562-.131-.782-.325-.382-.987-.234-1.364-.033-.509.272-.697.817-.404 1.319m2.83 30.801c-.412-.211-1.029.122-1.209.55h-.014c-.096 0-.129.099-.096.164-.218.384-.068.865.25 1.167.461.433 1.038.129 1.347-.312.37-.52.318-1.262-.278-1.569m1.623-34.853c-.192.091-.307.239-.44.403-.201.248-.482.395-.678.641-.283.354-.159.776-.117 1.185-.084.038-.082.176.005.209-.012.253-.019.52.187.686.213.176.669-.007.898-.047.367-.061.634-.187.79-.536.073-.162.031-.379.014-.548-.039-.415.134-.74.26-1.124.255-.773-.222-1.199-.919-.869m5.753 16.669c-.376-.11-.802.037-1.073.297-.213.209-.22.445-.267.691a.11.11 0 0 0-.058.096c-.01.37-.134.988.217 1.253.129.096.278.159.442.113.337-.096.583-.195.936-.101.706.192 1.204-.157 1.005-.892-.147-.553-.626-1.286-1.202-1.457m2.39-8.008c-.367-.237-.753-.347-1.043-.698-.624-.766-1.524.061-1.539.846-.161.313-.304.859-.091 1.175a1 1 0 0 0 .37.335c.098.056.206.101.309.148.182.086.219.204.35.335.204.206.599.515.917.393.459-.173.402-.672.627-1.042.217-.356.514-.658.426-1.101-.031-.157-.202-.311-.326-.391m96.842-223.153c.145 0 .145-.228 0-.228-.147 0-.147.228 0 .228m57.714 103.025a.1.1 0 0 0-.058-.002c-.084.021-.101.051-.145.126-.112.202-.22.356-.377.527-.224.241-.4.551-.43.883-.028.314.292.558.517.715.283.196.636.182.924.011.21-.121.285-.349.311-.576.016-.159-.007-.33-.017-.492-.011-.218.05-.426.071-.641.051-.56-.384-.719-.796-.551m2.571.005a.42.42 0 0 0-.396-.464c-.231-.021-.371.164-.416.365a.2.2 0 0 0-.016.052c-.028.246.105.473.369.48.239.007.44-.201.459-.433m-.604 1.129c-.082-.206-.147-.523-.397-.59-.758-.211-.667.697-.657 1.15 0 .004.002.004.002.009.012.571.103 1.122.772 1.208.467.064.959-.297.891-.798-.054-.412-.468-.623-.611-.979m.7-.576a.86.86 0 0 0-.23 1.044c.028.049.08.063.127.049.058.12.117.249.238.314.213.113.367.045.545-.098.171-.134.141-.314.176-.513.028-.183.049-.368-.005-.546-.103-.349-.578-.468-.851-.25m1.686-.448c.245-.042.426-.398.344-.625-.103-.267-.498-.246-.73-.246a.114.114 0 0 0-.112.112c0 .047-.007.038-.042.071a.1.1 0 0 0-.026.103.2.2 0 0 0-.047.063c-.047.091-.023.194.028.279a.59.59 0 0 0 .585.243m.051.506h-.002q-.012-.006-.03-.012c-.026-.077-.117-.103-.183-.049-.327.281-.32.768-.355 1.162-.042.424.124.885.528 1.059.049.018.101.023.138-.019.344-.368.543-.869.566-1.373.024-.475-.252-.705-.662-.768m1.736-1.96a.32.32 0 0 0 .016.264c.089.167.281.207.449.153.183-.057.36-.258.358-.457-.005-.239-.278-.377-.475-.431a.12.12 0 0 0-.131.052c-.04.016-.075.039-.084.1a.1.1 0 0 0 .009.066.1.1 0 0 0-.014.042c-.007.054-.1.148-.128.211m.577.822c-.631-.269-1.347-.274-1.361.457a.11.11 0 0 0-.068.098c-.021.361.239.536.485.759.435.393.369 1.028.626 1.513a.65.65 0 0 0 .772.302c.276-.098.36-.569.402-.813.141-.838.038-1.934-.856-2.316m2.536.703c-.407-.335-.356-.68-.325-1.139.028-.363-.066-.649-.405-.784-.234-.089-.433.011-.449.264-.028.368-.402.38-.547.661a.09.09 0 0 0-.054.093l.007.057a.1.1 0 0 0-.007.018.1.1 0 0 0 .014.061c.03.277.096.534.192.801.098.263.175.612.322.848.239.384.58.504 1.02.52.342.014.732-.007.989-.258.237-.227.064-.58-.128-.758-.183-.167-.44-.23-.629-.384m39.883 112.145c-.225-.021-.522.178-.716.27-.199.098-.292.262-.33.48-.067.412.185.932.648.916.281.107.608.309.908.133.205-.119.318-.412.346-.637.058-.522-.302-1.11-.856-1.162m.828-6.122c-.047 0-.073-.056-.138-.07a1.2 1.2 0 0 0-.4-.007c-.318.028-.697.082-.989.213-.37.166-.693.672-.302.955.077.258.416.319.65.345.047.004.175.14.241.164.103.035.215-.003.306-.047.435-.204.728-.993.744-1.441a.11.11 0 0 0-.112-.112m1.866 3.204c.295.131.587-.08.702-.351.107-.26-.04-.558-.276-.679a.44.44 0 0 0-.395-.029c-.096.04-.157.129-.23.199h-.084c-.068 0-.103.052-.112.115-.038.293.119.619.395.745m1.712 5.724c-.063-.295-.089-.632-.355-.824-.286-.204-.623-.361-.976-.396-.21-.021-.587-.063-.757.103-.241.225-.333.562-.566.806-.496.515-.113.958-.061 1.522-.077.021-.084.101-.047.159a2.17 2.17 0 0 0 .152 1.57c.143.276.463.342.737.393.409.08.605.501.982.616.386.117 1.015.22.978-.398-.031-.454.259-.829.231-1.288-.019-.277-.049-.436.105-.677.061-.096.162-.192.19-.307.171-.672-.498-.742-.613-1.279m.674-7.303c-.173-.077-.361-.046-.541-.032-.222.016-.402.199-.619.222a.1.1 0 0 0-.04.014c-.07-.026-.159.007-.147.099.039.398.428.494.652.77.101.127.299.122.442.101.185-.031.311-.223.377-.38.121-.278.222-.637-.124-.794m-.786 2.446c.007.157.107.351.276.386.178.038.332-.026.491-.108.203-.103.346-.199.568-.248.358-.08.353-.567.148-.789-.129-.145-.407-.211-.587-.23-.269-.033-.496.04-.723.185-.08.052-.061.148-.005.192-.037.108-.11.204-.142.317-.026.096-.031.196-.026.295m1.092 2.086c-.36-.227-.917-.29-1.083.136a.09.09 0 0 0-.04.066c-.002.009-.142.183-.163.222a.52.52 0 0 0-.08.361c.089.401.3.307.625.387.334.082.519.452.905.393.213-.033.327-.192.358-.396.07-.445-.145-.934-.522-1.169m.318-1.63c-.168-.103-.4-.093-.585-.054-.313.071-.385.321-.402.593-.07.028-.11.148-.023.211.014.012.021.014.028.019.016.044.063.067.107.067a.4.4 0 0 0 .166.216c.169.098.421.091.611.091.346.005.627-.299.475-.637-.096-.215-.169-.377-.377-.506m-.047-5.906c.255-.574.456-.989.403-1.638-.052-.651-.29-.578-.777-.805-.411-.197-.344-.792-.344-1.157 0-.356-.082-.811.384-.827.32-.01.65-.199.648-.558 0-.255-.075-.498-.084-.756-.012-.258.091-.56.014-.813-.103-.337-.335-.454-.644-.255-.161.103-.203.267-.252.443-.208.716-.662.44-1.109.59-.409.138-.598.41-.446.824.084.23.294.537.147.794a.1.1 0 0 0 .007.12q.009.013.016.023c-.093.276-.135.567-.206.853-.091.365-.622.527-.905.716-.332.216-.488.551-.306.909.108.209.316.363.442.56.126.199-.077.543-.028.78.051.241.115.445.278.63.339.384.134.688.143 1.122.009.314.243.702.582.73.407.038.824-.138 1.209.052.286.14.571.227.887.218.32-.007.47-.291.416-.581-.14-.74-.84-1.15-.475-1.974m1.263-9.296c.255-.396.342-.78.141-1.214-.089-.192-.269-.377-.414-.529-.4-.419-.375-.806-.29-1.34.053-.36.147-.721-.206-.948-.257-.164-.767.084-.964.248-.18.152-.241.356-.334.565-.246.543-.966-.314-1.083-.511-.136-.225-.323-.719-.632-.768-.264-.042-.425.093-.456.365-.056.536.068.953.375 1.398.131.188.414.591.676.689v.061q0 .006.002.009a.1.1 0 0 0 .026.066c.091.56-.333.974-.625 1.398-.304.431-.035.878.234 1.23.367.48.157 1.049.18 1.609.005.208.145.571.423.484.358-.11.492-.466.718-.733.398-.47 1.079-.344 1.495-.761.11-.11.159-.29.21-.433.12-.323.34-.6.524-.885m-.119 3.489c.295.05.634-.21.739-.475.047-.12.047-.251-.035-.351a.4.4 0 0 0-.164-.122c-.065-.024-.114-.077-.18-.103-.217-.087-.517.044-.685.229-.054.003-.105.04-.105.11v.075c0 .035.014.064.03.082-.143.227.164.516.4.555m-3.274-9.541c-.201.163.025.515.161.625.091.077.243.105.353.15.269.105.276.353.286.625.011.281.091.572.392.661.885.255.95-.656 1.392-1.164.477-.549 1.714-.748 1.693-1.668-.009-.351-.067-.644-.381-.848-.772-.496.04-1.141.07-1.773.038-.731-.156-1.958-1.071-2.056-.847-.094-1.822.428-2.114 1.241-.19.522.086 1.216.182 1.726.099.541.148 1.075.148 1.621q0 .02.007.033c-.019.709-.723.503-1.118.827m5.105 13.392c.302-.024.227-.344.227-.558 0-.152-.238-.302-.337-.391-.215-.192-.124-.721-.269-.99-.072-.132-.226-.223-.348-.305-.309-.204-.552-.349-.709-.7-.131-.298-.32-.408-.617-.281-.063.028-.07.082-.047.129-.122.178-.054.484-.035.669.042.415.122.825.22 1.232.168.724 1.221 1.249 1.915 1.195m0-24h-.002a.1.1 0 0 0-.023-.054c-.073-.143-.262-.22-.419-.197-.271.043-.353.237-.4.488-.059.332-.103.637-.206.96-.082.257-.187.583-.124.859.145.64.845.654 1.282.303.269-.214.292-.534.22-.839-.068-.274-.244-.513-.258-.803-.009-.237-.058-.471-.07-.705v-.012m-.128 19.255c-.218-.068-.426.018-.585.166-.161.152-.119.424-.115.618 0 .052.035.094.08.108.016.424.105 1.164.512 1.312.192.072.349.016.489-.122.21-.206.107-.551.143-.813.039-.267.156-.588.014-.848a.85.85 0 0 0-.538-.421m1.031 34.698c-.105-.393-.582-.485-.83-.768-.272-.304-.62-.421-1.015-.325-.606.142-.903.897-.99 1.503a.1.1 0 0 0-.028.075q.002.025.003.056-.001.01-.003.019v.152a.1.1 0 0 0 .042.085c.141.587.641.897 1.291.609.225-.099.41-.249.644-.333.187-.066.409-.042.584-.143.295-.173.384-.623.302-.93m-1.169-29.532a.1.1 0 0 0-.028.047.1.1 0 0 0-.073.08c-.047.009-.084.044-.084.105.005.366.07.834.379 1.073.306.237.821.166.977-.206.211-.501-.692-1.616-1.171-1.099m.605 32.926c-.093.007-.126.108-.093.171-.11.255.016.651.135.86.085.152.239.189.396.154a.54.54 0 0 0 .252-.112c.073-.08.11-.197.197-.256.192-.128.383-.18.493-.393.087-.169.052-.342-.063-.482-.36-.443-.912.035-1.317.058m.115-59.841c-.426.367-.297.803-.395 1.302-.042.213-.096.262-.028.482.035.113.196.228.196.342 0 .096.101.129.169.094.219.185.299.56.551.728.246.164.564-.133.733-.281.64-.569-.031-1.241-.265-1.843-.114-.288-.5-1.227-.961-.824m2.388-6.348a.7.7 0 0 0 .746-.138c.115-.1.126-.154.29-.199a.6.6 0 0 0 .297-.159c.379-.354.082-.991-.309-1.18-.458-.223-1.029.1-1.328.482-.073-.082-.236-.023-.197.098a.3.3 0 0 0 .028.052c-.124.152-.14.279-.072.515.075.262.304.431.545.529m1.569 71.138c-.351-.126-.468-.241-.505-.611-.012-.113-.11-.293-.213-.352a.788.788 0 0 0-1.172.82.105.105 0 0 0-.016.127c.283.543.763.878 1.008 1.454.136.319.316.525.653.614.708.189 1.679-.274 1.265-1.122-.206-.419-.575-.775-1.02-.93m2.942 3.288c-.264 0-.69-.075-.921.11-.218.176-.271.497-.248.762.035.393.426.684.571 1.033.091.213.257.51.51.559 1.492.3 1.291-2.337.088-2.464m1.067-48.135a1.1 1.1 0 0 0-.421.225 1.36 1.36 0 0 1-.795.349c-.339.042-.482.285-.59.564a.13.13 0 0 0-.051.082c-.124.061-.183.22-.19.37-.014.291.157.438.424.506.133.033.294-.049.414-.101.227-.1.449-.131.69-.173.32-.056.538-.218.704-.496.154-.265.318-.628.248-.944-.047-.209-.181-.457-.433-.382m1.504 49.231c.285-.14.255-.538.135-.777-.189-.389-.313-.656-.065-1.061.128-.206.145-.363.056-.59-.028-.064-.108-.134-.18-.134-.295-.005-.508.028-.685-.29-.201-.368-.515-.813-.992-.665-.83.26-.716 1.894-.409 2.442q.005.01.014.019.002 0 .002.005c.363.414.487.852.999 1.11.325.166.809.094 1.125-.059m-.985-7.768c-.297.053-.461.295-.491.59-.026.218-.014.412.03.625.054.239.26.494.269.736q0 .004.003.004c0 .026.007.052.032.078.337.337.662 1.032 1.245.932.28-.047.252-.441.238-.637-.035-.469.475-.675.428-1.12-.033-.335-.449-.604-.701-.773-.246-.166-.732-.496-1.053-.435m2.25 11.97c-.131-.276-.468-.302-.732-.304-.487-.014-.69-.427-1.109-.593-.294-.122-.414.075-.561.246-.042-.037-.105-.051-.157-.002-.236.241-.098.749-.06 1.054.035.276.166.634.465.723.578.178 1.352-.323 1.831-.606.155-.091.424-.307.323-.518m-1.137-65.392c.021.056.061.098.108.169.098.152.18.311.29.456.145.195.402.391.655.265.121-.059.178-.157.21-.286.059-.22.035-.405.162-.606.156-.249.191-.555.037-.813-.224-.384-.795-.454-1.186-.34-.528.155-.591.663-.358 1.096.019.04.05.057.082.059m.648 68.58c.049.108.136.265.26.297.365.099.659-.248.802-.541.171-.351.36-.478.709-.623a.7.7 0 0 0 .374-.356c.157-.304.04-.782-.19-1.019-.369-.379-.837-.454-1.321-.264-.428.161-1.291.724-1.146 1.274a.1.1 0 0 0-.007.042c0 .108-.101.164-.066.286.047.173.138.283.258.412.149.157.238.293.327.492m2.868.077c-.061-.361-.199-.642-.536-.801-.246-.122-.526-.026-.734.117-.321.223-.272.677-.433 1-.36.188-.615.457-1.022.6-.274.096-.463.335-.559.597-.077.211.133.424.257.56.292.328.288.771.54 1.108.248.332.854.29 1.17.545.341.277.587.987.72 1.392.171.522.737.965 1.317.702.351-.154.503-.428.634-.78.072-.194.107-.405.156-.609.057-.234.223-.423.239-.674.061-.869-.589-1.569-1.132-2.167-.447-.491-.517-.962-.617-1.59m10.807-226.512c-.62-.468-1.195-.897-1.427-1.682-.184-.627-.1-1.379.524-1.712.419-.222.821-.152 1.144-.55.18-.225.269-.543.386-.803.154-.34.414-.593.678-.844.585-.557 1.511-1.454 1.006-2.349-.293-.517-1.125-.836-.814-1.55.107-.253.4-.487.344-.731a.1.1 0 0 0 .025-.073c-.002-.234-.018-.405-.131-.608-.128-.232-.233-.174-.479-.22-.734-.132-1.644.206-2.294-.19-.379-.232-.833-.33-1.242-.11-.318.168-.55.356-.94.246-.361-.099-.66-.457-.924-.703-.964-.895-2.26-.546-3.282.089-.273.17-.923.487-.601-.11.187-.347.445-.665.679-.982.484-.648 1.075-1.105 1.63-1.684.867-.901-1.025-2.07-1.42-2.71-.25-.407-.32-.936-.755-1.206-.328-.201-.922-.086-1.207.14-.194.158-.314.336-.452.542q-.07.1-.14.197-.217.317-.585-.106c.017-.11.057-.222.092-.328.238-.705 1.008-1.075 1.555-1.508.311-.248.779-.705.641-1.164-.15-.501-.587-.74-1.071-.857a1.3 1.3 0 0 0-.508-.024c-.536.082-.776-.173-.961-.585-.164-.37-.377-.686-.723-.902-.631-.396-1.48-.016-2.053.295-.845.46-1.647 1.115-2.33 1.785-.439.433-.75.925-1.108 1.422-.178.253-.468.873-.77 1.091a.1.1 0 0 0-.042.023q-.022.017-.04.024a.4.4 0 0 1-.06.023c-.043.01-.066.043-.075.078a.11.11 0 0 0-.077.077c-.431.037-.77.27-1.254.18-.798-.143-1.452-.752-2.238-.96-.732-.194-1.551.016-2.22-.377-.587-.344-.734-1.12-1.27-1.48-.376-.25-.657.028-.907.323-.477.571-.821 1.197-1.387 1.698-.51.45-1.165.698-1.635 1.19-.411.433-.594 1.065-.842 1.597-.351.747-.947 1.279-1.44 1.916-.188.234-.372.457-.524.719-.237.403-.176.78-.817.78-.491.002-.947.04-1.382.283-.227.13-.423.335-.58.539-.397.508-.875.274-1.305-.023-1.055-.72-1.674.44-2.098 1.222-.245.452-.797.611-.863 1.178-.03.288-.009.532.098.799.057.138.071.192.136.33.374.778-.344.661-.627.644-.224-.011-.423.063-.622.152-.444.2-.634.532-1.195.52-.402-.007-.767.052-.877.478-.122.459-.185.75-.667.935a2.2 2.2 0 0 0-.61.367c-.351.284-.884.696-.811 1.216.053.372.304.682.343 1.052.047.402-.273.761-.538 1.016-.559.543-1.394.984-2.172.829a3.05 3.05 0 0 0-1.79.159c-.29.118-.558.289-.849.413-.292.124-.467.37-.732.522-.014-.005-.023-.009-.039-.009-.655 0-1.357.11-1.965-.206-.482-.249-.706-.874-1.202-1.158-.248-.138-.58-.14-.739.12-.197.321.079.911.119 1.241.08.722.15 1.452.122 2.178-.019.441-.059.874.161 1.27.234.426.828.459 1.247.494.835.077 1.625.04 2.432.3 1.006.323 1.338 1.091 1.095 2.082-.159.637-.246 1.07-.052 1.717.194.642.505 1.227.592 1.904.014.129.072.632-.152.602-.304-.045-.636-.485-.924-.628-.949-.461-2.161-.131-2.858.597-.582.607-1.45.242-2.203.274-.559.029-.823.45-1.319.534a.12.12 0 0 0-.117-.056q-.03.006-.066.012c-.023.002-.053.028-.07.054-.154-.026-.257-.103-.474-.054-.522.117-.966.136-1.451.379-.577.288-.963.766-1.639.848-.681.082-1.422-.147-2.058-.363-.898-.307-1.588-1.049-2.491-1.307a.74.74 0 0 0-.697.16c-.157.128-.093.47-.302.545-.243.087-.512.129-.76.211-.245.077-.673.237-.778.504-.122.311-.138.562-.522.677-.342.1-.472-.022-.739-.204-.267-.183-.559-.265-.854-.129-.124.058-.213.208-.285.318-.248.375-.367.663-.884.691-1.375.071-2.135-1.239-3.27-1.794-.907-.445-1.368.188-1.934.738-.049-.007-.098.014-.108.08l-.009.033c-.023.021-.042.037-.063.058l.007.009c-.18.113-.655-.03-.755-.082-.283-.142-.515-.402-.725-.634-.356-.391-.648-.841-1.074-1.164-.25-.188-.585-.258-.854-.415a1.6 1.6 0 0 1-.809-1.365c-.005-.485.372-.74.524-1.148.11-.288.187-.651.131-.96-.04-.234-.096-.427-.231-.619-.225-.313-.522-.477-.543-.913-.042-.752.613-1.508.786-2.23.327-1.349-.36-2.663-1.282-3.578-.828-.83-2.184-.994-3.195-.41-.582.337-.963.958-1.627 1.138-.342.089-.681.197-1.023.288-.297.084-.643-.15-.907-.04-.43.181-.561.553-.599.993-.014.185.014.398.131.546.304.389.627.602.828 1.084.295.708-.744 1.499-1.064 2.078-.327.59-.143 1.386-.182 2.03-.019.291-.054.579-.061.869-.005.202.138.466.189.659.169.653-.479 1.068-.372 1.677.099.55.456 1.009.704 1.498.325.647.676 1.3.931 1.975.274.714.293 1.417.012 2.127-.215.543-.37 1.025-.346 1.613.016.398-.232 1.9-.777.972a1.8 1.8 0 0 0-.393-.471c-.016-.016-.421-.208-.414-.166-.004-.035-.044-.075-.079-.079l-.066-.01a.11.11 0 0 0-.1.033.12.12 0 0 0-.08-.037c-.587-.029-1.003.353-1.489.62-.23.124-.466.211-.721.099a.5.5 0 0 0-.203-.04c-.321 0-.517.18-.868.058-.533-.178-1.055-.232-1.581-.004-.522.227-.889.257-1.436.138-.496-.106-.798-.621-1.088-.991-.575-.735-2.172-.895-2.696-.04-.211.345-.314.829-.83.736a4.2 4.2 0 0 0-.983-.096c-.823.025-1.382.016-1.978-.591-.447-.454-1.008-1.253-1.757-.906-.156.075-.542.433-.725.396-.313-.063-.545-.225-.802-.403-.393-.279-.968-.464-1.41-.211-.311.176-.426.501-.838.551-.435.051-.783-.588-.912-.909-.212-.532-.633-1.171-1.118-1.492-.465-.309-.874-.38-1.419-.279-.29.054-.515.169-.751.34-.248.178-.533.276-.779.452-.552-.028-1.055-.579-1.518-.834a11 11 0 0 0-1.969-.824c-.772-.242-1.756-.324-2.255-1.043-.399-.58-.341-1.323-.491-1.976-.28-1.237-1.314-1.844-2.523-1.727-.452.043-.915.16-1.331-.077-.292-.168-.405-.524-.61-.773-.4-.48-.898-.7-1.516-.737-.662-.043-1.181.252-1.738.552-.528.286-.996-.206-1.312.427-.372.737-1.068.163-1.555-.104-.517-.283-1.069.178-1.499.415-.187.103-.447.253-.55.457-.194.386-.383 1.075-.921.59-.318-.283-.496-.663-.943-.717-.369-.042-.694.181-1.071.059-.299-.099-.592-.213-.898-.293a1 1 0 0 0-.606.014.98.98 0 0 1-.839-.051.12.12 0 0 0-.089-.08c-.012-.028-.045-.061-.075-.066-.122-.018-.007-1.058-.033-1.199-.058-.332-.063-.742-.292-1.009-.543-.626-1.593-.422-2.231-.089-.393.203-.625.302-1.072.194-.301-.072-.577-.243-.834-.417-.499-.339-.903-.843-1.383-1.218-.4-.316-.839-.604-1.316-.794-.513-.201-1.116-.091-1.647-.035-.51.056-1.116.227-1.604-.002-.262-.122-.391-.426-.559-.644-.12-.15-.29-.248-.456-.335-.557-.291-1.205-.253-1.612-.818-.264-.36-.348-.817-.629-1.175-.318-.403-.893-.307-1.3-.544-.585-.337-.945-.864-1.382-1.353a4.5 4.5 0 0 0-1.259-.991c-.472-.251-1.019-.225-1.536-.316q0-.005-.003-.005c.024-.059.005-.129-.067-.143-.017-.094-.12-.096-.178-.042a.1.1 0 0 0-.049-.03c-.01-.038-.04-.064-.08-.08-.248-.103-.346-.248-.631-.293-.375-.056-.718.038-1.076-.15-.674-.349-.971-1.321-1.443-1.881-.213-.255-.585-.69-.98-.58-.554.152-.391.754-.585 1.182-.257.56-2.081-.939-2.278-1.121-.414-.385-.734-1.141-1.256-1.359-.259-.11-.582-.466-.18-.616.094-.037.194-.058.29-.082.171-.044.365-.122.501-.232.477-.386.39-.873.374-1.428-.024-.752.762-1.118.898-1.844.14-.763-.683-1.403-.304-2.152.241-.478.837-.736 1.031-1.241.106-.281.124-.549.124-.848 0-.588.099-.977.618-1.29.463-.282.832-.474 1.141-.928.117-.176.119-.377.101-.576-.061-.621.35-.59.832-.628.41-.035.877-.127 1.135-.485.378-.527.357-1.452 1.068-1.63.62-.155 2.157-.354 1.759-1.382-.009-.377-.07-.785-.306-1.089-.431-.558-.873-.508-1.52-.497a1.23 1.23 0 0 1-1.172-.81c-.084-.213-.173-.53-.351-.684-.454-.391-1.003-.42-1.579-.414-.374.002-.746.02-1.108-.08-.297-.084-.566-.41-.814-.597-.215-.16-.47-.225-.728-.281-.734-.16-.587-.813-.563-1.345.023-.555-.33-.73-.66-1.117-.107-.129-.283-.265-.456-.288-.477-.073-.8-.094-1.253-.32-.622-.312-1.111-.797-1.768-1.045-.578-.22-1.095-.748-1.729-.773-.423-.02-.765.353-1.139.484-.875.307-1.174-1.138-1.515-1.627-.204-.295-.466-.478-.585-.834-.103-.302-.105-.64-.157-.953-.107-.668-.535-.98-1.078-1.305-.393-.234-.755-.808-1.239-.862-.419-.044-1.013.18-1.224.57-.135.248-.407 1.515-.949.772-.194-.264-.075-.635-.295-.885-.713-.822.211-1.195.311-1.965a.1.1 0 0 0 .012-.056.1.1 0 0 0-.005-.024.3.3 0 0 0 .005-.051c0-.03-.012-.05-.026-.068-.093-.492-.369-.937-.589-1.382-.211-.426-.395-.956-.171-1.415.136-.274.246-.552.309-.852.098-.466-.061-.874-.386-1.202-.187-.187-.48-.267-.678-.447-.365-.321-.113-.874-.286-1.27-.299-.683-1.267-.803-1.019-1.714.07-.265.203-.541.217-.82.019-.365-.1-.658-.208-1-.398-1.272 1.443-1.403 1.943-.508.302.546.227 1.237.517 1.803.562 1.092 1.614.848 2.426.216.502-.391.603-1.363 1.314-1.35.564.015.858-.046 1.153-.543.124-.206.215-.417.477-.517.162-.061.449-.012.622-.007.274.007.545-.059.8-.148.459-.157.837-.54.975-1.002.152-.506-.119-1.047-.266-1.513-.218-.672-.433-1.232-.875-1.794-.262-.338-.51-.668-.666-1.07-.209-.535.016-.982.264-1.443.171-.314.43-.87.178-1.202-.052-.31-.333-.55-.578-.73-.524-.382-1.139-.41-1.766-.479q-.575-.059-1.155-.065c-.473-.005-.788-.098-1.17-.41-.872-.721-.757-1.944-.089-2.764.55-.674 1.75-1.503 1.308-2.543-.098-.234-.332-.41-.454-.633-.077-.135-.15-.32-.29-.402-.14-.085-.299-.148-.468-.122-.781.124-.741-.989-.416-1.398.449-.57 1.609-.153 2.124.093.549.262.97.827 1.62.878 1.341.11 1.144-1.208 1.911-1.878.463-.407.702-.688.912-1.281.3-.85.096-1.869 1.086-2.265.488-.194.839-.405 1.155-.84.159-.218.257-.476.341-.731.068-.192.061-.534.361-.565.131-.014.261-.01.39-.033.772-.157 1.537-.231 2.011-.922.487-.71.372-1.79.375-2.598.004-1.194.379-2.178 1.033-3.164.26-.387.555-.77.728-1.211.159-.405.163-.768.161-1.183a.1.1 0 0 0 .075-.103c.009-.539.094-1.173-.271-1.623-.426-.524-1.249-.848-1.818-1.187-1.246-.745-2.02-2.352-3.662-2.207-.482.043-.924.096-1.296-.288a2.2 2.2 0 0 0-.613-.459c-.332-.173-.687-.194-.844-.604-.089-.234-.164-.515-.346-.696-.437-.44-.863-.365-1.396-.15a.9.9 0 0 0-.4.29c-.337.446-.643.67-1.174.86-.3.106-.571.277-.847.431-.157.085-.309.16-.454.267-.257.185-.509.014-.734-.098-.491-.241-.898-.57-1.462-.398-.231.068-.425.239-.605.391-.204.173-.426.297-.7.302-.103.002-.238-.03-.336-.005-.763.204-1.516.45-2.276.663-.585.164-1.139.29-1.579.724-.503.492-.706 1.23-1.424 1.469-.316.105-.655.238-.989.269-.227.02-.485.007-.697.1-.244.108-.41.284-.625.43-.323.215-.896-.1-1.256-.109-.407-.009-.758.317-1.115.462-.739.297-1.179-.49-1.298-1.064-.227-1.063-.856-1.768-1.864-2.173-.592-.234-1.284-.012-1.899-.164-.569-.14-1.182-.143-1.762-.162-1.01-.028-1.284-1.077-1.328-1.913-.014-.246-.178-.64-.03-.864.091-.136.067-.314.032-.46q-.002-.032-.009-.065c-.002-.021-.023-.047-.042-.063.194-1.064-1.509-1.167-2.051-1.731-.225-.232-.323-.557-.531-.806a2.9 2.9 0 0 0-.615-.557c-.611-.415-1.23-.19-1.897-.33-.362-.08-.489-.462-.753-.663-.281-.211-.629-.312-.947-.455-.653-.297-.798-1.234-1.252-1.728a1.9 1.9 0 0 0-.668-.469c-.363-.173-.571-.454-.805-.765-.426-.57-.828-1.195-1.319-1.715-.552-.588-1.448-.698-1.473-1.658-.01-.363-.005-.796-.4-.96-.52-.216-1.048-.16-1.507.187-.682.51-1.026-.227-1.705-.091-.535.105-.94.538-1.487.609-.816.107-.69-1.078-1.356-1.228-.475-.11-.915.007-1.13.466-.063.13-.11.27-.171.401-.273.59-.821.222-1.122.063-.209-.108-.524-.204-.765-.166-.431.068-.709.417-1.083.62-.339.183-.653.23-1.029.204-.126-.007-.293-.035-.409.033-.138.082-.3.038-.431.162-.252.246-.393.768-.744.876a.1.1 0 0 0-.049.032.11.11 0 0 0-.072-.037c-.374-.044-.538-.426-.742-.684a2.1 2.1 0 0 0-.547-.49c-.39-.255-.98-.264-1.324.087-.231.234-.502.675-.332 1.02.117.226.295.37.487.53.168.144 1.132 1.137.475 1.172-.623.035-1.287-.185-1.829-.464-.564-.293-1.039-.686-1.694-.717-.669-.035-1.115.705-1.779.77-.307.031-.665-.214-.978-.254-.22-.03-.487.107-.648.239-.414.335-.657.784-.856 1.271-.157.377-.238 1.162-.919.86-.154-.068-.341-.134-.508-.056-.385.178-.472.609-.474.997 0 .422.063.778-.237 1.127-.332.393-.841.386-1.272.579-.521.229-.629.817-1.09 1.121-.343.228-.771.22-1.047.558-.274.337-.19.864-.092 1.246.075.295.15.588.29.86.218.423.51.674.555 1.19.046.573.149.978.566 1.4.451.452 1.001.536 1.602.396.365-.085.713-.24 1.071-.342.528-.153 1.069.035 1.522.302.73.433 1.273 1.138 1.754 1.815.382.534.875.9 1.296 1.389.229.267.735.91 1.17.665q.146-.088.276-.19a.12.12 0 0 1 .07-.068c.063-.02.128-.044.194-.058a.1.1 0 0 1 .063-.021h.302c.06 0 .114.051.114.114v.27l.075.033a6 6 0 0 1-.077.513c-.035.185-.028.421.054.594.264.553.839.94 1.185 1.45.26.391.527.745.95.965.463.244 1.017.113 1.494.319.945.41-.243 1.796-.636 2.15-.238.213-.612.293-.825.503-.22.22-.428.469-.728.59-.231.097-.493.132-.732.214-.25.086-.498.096-.736.218-.216.11-.377.398-.501.594-.451.7-.797 1.282-1.621 1.584-.299.112-.624.292-.949.309-.108.005-.276-.002-.358.087-.306.332-.068.681.194.948.117.122.358.354.582.48-.021.059.003.131.068.152.014.232.056.396-.086.652-.091.166-.199.332-.22.526-.075.675.479.888.695 1.464.224.598-.129 1.436-.4 1.949-.216.41 0 .86.245 1.192.155.21.335.405.482.625.222.333.21.72.208 1.104-.002.304-.019.613.023.918.052.358.197.637.307.981.229.693-.692 1.115-.763 1.785-.086.8.241 1.546.323 2.326.063.595-.599.96-.505 1.578.073.48.337.843.688 1.166.39.364.879.621 1.349.86.482.248 1.193.759 1.759.72.456-.031.797-.111 1.235.123.36.192.692.45 1.003.712.526.438 1.003.928 1.548 1.345.48.365.976.613 1.574.679.33.037.662.002.994.047.187.025.302.173.48.19a.11.11 0 0 0 .105.077c.065 0 .056.805.04.913-.026.209-.134.469-.061.682.187.548.671.927 1.071 1.318.442.434.91.272 1.471.361.262.04.489.267.758.328.379.091.741-.028 1.111.161.236.12.409.357.692.366.491.016.924-.054 1.23.422.407.634.267 1.618-.39 2.011-.255.155-.578.204-.866.265-.353.073-.668.19-1.033.201-.267.007-.583-.138-.852-.056-.292.087-.545.244-.792.422-.496.367-.901.845-1.404 1.213-.376.274-.739.241-1.171.213a.58.58 0 0 0-.431.157c-.351.35-.503.84-.76 1.253-.241.384-.73.754-.725 1.253.012.693.58 1.298.791 1.947.231.718.446 1.723-.085 2.335-.255.295-.61.58-.657 1-.077.665.358 1.25.365 1.913-1.148.085-2.021.895-2.306 2.026-.201.796-.178 1.522-.907 2.05-.492.358-1.053.552-1.439 1.042-.201.253-.348.54-.559.789-.231.276-.505.518-.746.782-.402.44-.402.954-.304 1.516.07.389.201.747.124 1.145-.065.34-.367.567-.634.75-.477.318-.9.632-1.33 1.014-.298.262-.609.461-.994.564-.363.094-.733-.054-1.095-.066-.533-.023-1.139.478-1.438.874a7.6 7.6 0 0 0-.578.94c-.147.276-.377.55-.456.859-.192.721-.533 1.466-.533 2.222 0 .392-.346.558-.541.855-.231.361-.339.733-.629 1.068-.467.54-1.019.989-1.436 1.574-.437.616-.872 1.272-1.221 1.944-.381.736-.797 1.375-1.426 1.923-.37.316-.702.583-1.17.736-.409.128-.818.077-1.232.1-.264.017-.683.265-.859.546a.12.12 0 0 0-.077-.016l-.065.009c-.035.005-.073.047-.08.08-.018.138-.215.386-.264.529-.147.433-.468.705-.828.958-.526.37-1.153.391-1.413 1.054a6.8 6.8 0 0 0-.413 1.92c-.068.996-.751 1.474-1.563 1.93-1.066.593-2.035 1.113-2.404 2.349-.096.317-.161.633-.318.93-.297.565-.992.544-1.532.504-.384-.028-.753-.073-1.137-.045-.362.026-.678-.054-1.031-.082-.302-.021-.585.075-.884.045a6 6 0 0 0-1.165 0c-.732.061-1.539.213-2.245.417-.47.136-.814.433-1.184.738-.318.262-.79.536-1.183.215-.269-.215-.24-.707-.231-1.014.016-.485.084-.904-.017-1.387-.103-.482.187-1.325-.294-1.667-.936-.668-2.547.011-3.476.358-.627.234-1.176.48-1.698.906-.53.434-.947 1.003-1.333 1.565-.875 1.286-1.495 2.672-2.79 3.609-2.1 1.516-5.202 3.2-4.652 6.275.122.693.566 1.288.816 1.939.21.56.438 1.246.945 1.616.524.389 1.179.478 1.73.815.473.288.614.836 1.217.904.582.064 1.123-.438 1.714-.126.433.229.34.918.27 1.307-.157.864-.571 1.639-1.058 2.361-1.188 1.768-.13 4.248 1.317 5.499.444.384.746.803 1.09 1.272.161.225.477.581.774.62.39.05.82-.072 1.172-.243.217-.103.416-.26.62-.387.528-.33.989-.128 1.117.387a.13.13 0 0 0-.042.082c-.047.623-.454 1.082-.381 1.707.03.286.035.553.098.834.084.372.302.679.456 1.019.173.382.421.698.564 1.103.124.347.152.717.274 1.068.09.276.254.532.395.787.231.417.323.827.4 1.29.11.682.229 1.284.54 1.905.108.217.344.381.512.55.416.41.276 1.152-.047 1.565-.184.243-.552.66-.355.993.274.461.847.726 1.23 1.091.098.098.597.721.033.642a1.7 1.7 0 0 1-.32-.094 6 6 0 0 0-.735-.199c-.435-.087-.86-.047-1.202.253-.182.164-.278.457-.377.672-.238.529-.662.565-1.18.487-.295-.044-.925-.093-1.04-.435-.151-.452-.039-.918-.088-1.382-.047-.424-.337-.689-.739-.768-.468-.092-.851.501-1.13.77-.942.911-2.554-.281-3.63.476-.743.524-.453 2.3-1.854 1.442-.43-.267-.781-.337-1.284-.271-.77.103-1.167-.284-1.61-.844-.476-.606-1.18-1.332-2.015-1.126-.508.126-1.06.358-1.537.576-.154.07-.294.276-.41.394-.42.435-.9.224-1.269-.139-.131-.126-.374-.641-.632-.611-.385.042-.89.96-1.272.63-.262-.227-.294-.522-.65-.649a.94.94 0 0 0-.468-.009c-.468.115-.662-.208-.914-.487-.54-.595-1.165.314-1.273.796-.187.86.382 2.45-.327 3.092a.1.1 0 0 0-.044-.01h-.075a.114.114 0 0 0-.108.082c-.194.026-.245.117-.505.146-.283.03-.582-.061-.856-.127-.3-.075-.603-.096-.91-.14-.22-.031-.4-.211-.582-.324-.122-.077-.332-.086-.472-.117-.506-.108-.936-.311-1.383.075-.397.349-.736.939-.77 1.48q-.026.416.094.813c.148.485.124.869-.18 1.277-.33.445-.327.939-.016 1.388.669.963 1.824.022 2.425-.496.61-.522 1.34-.757 2.037-1.124.283-.15.531-.45.777-.654q.109-.081.217-.159.355-.225.498.232c-.037.204-.208.405-.35.546-.676.665-1.85.363-2.561.983a1.5 1.5 0 0 0-.349.448c-.135.253-.06.541-.215.791-.21.333-.603.787-.29 1.19.386.501 1.031.778 1.466 1.255.527.579.531 1.392 1.006 1.989.437.553.917 1.07 1.38 1.6.23.262.54.407.833.585.397.241.792.49 1.202.712.662.366 1.36.661 2.037.998.741.37 1.389.878 2.116 1.267.58.309 1.18.55 1.839.55.222 0 .575.075.78-.053.272-.171.742.023 1.056-.08.325-.101.463-.457.591-.733.201-.441.536-.34.948-.272.392.066.792.063 1.192.042.55-.028 1.233.127 1.708-.22.119-.089.177-.22.234-.351.046-.117.074-.23.098-.352.1-.466.446-.447.846-.271.393.171.826.471 1.245.199.042-.028.072-.087.096-.127.123-.185.296-.276.498-.353.205-.08.407-.227.575-.368.246-.208.215-.49.04-.714-.028-.038-.346-.335-.054-.366.227-.025.484.131.676.234.53.286.561 1.087.201 1.528-.267.325-.674.316-1.043.374-.274.042-.561.314-.781.464-.57.389-.912 1.017-1.347 1.532-.536.637-1.263 1.468-2.143 1.553-.35.035-.69-.181-1.055-.153-.217.019-.404.181-.558.319-.31.267-.534.548-.952.66-.337.087-.69.036-1.025.118-.243.06-.484.147-.68.306-.262.213-.697.762-1.074.598-.414-.178-.634-1.157-1.214-.724a.9.9 0 0 0-.262.321c-.065.18-.063.482-.414.393-.126-.03-.163-.023-.294-.009-.201.026-.39.168-.552.279-.435.285-.856.224-1.123-.228-.252-.426-.294-.929-.599-1.332-.254-.335-.73-.471-1.132-.406-1.15.188-1.726 1.113-1.705 2.223.01.609.29 1.19.55 1.729.316.662.68 1.271 1.186 1.808s.987 1.096 1.494 1.632c.566.6 1.205 1.115 1.77 1.712.179.188.644.614.68.865.001.028.027.056.055.07q.004.014.021.042c.091.155.335.267.47.401a.1.1 0 0 0 .092.032c.16.087.502.616.589.71.266.295.552.567.807.874.648.768 1.204 1.506 1.578 2.44.569 1.412 1.448 2.752 2.597 3.757.54.468 1.13.995 1.789 1.281.468.201.872.494 1.178.906.225.305.377.64.641.914.332.342.847.403 1.296.452.921.098 1.623.487 2.411.953.45.265 1.067.347 1.577.218.154-.042.264-.192.355-.309.395-.504.947-.258 1.46-.199 1.494.168 3.115-.429 4.455-1.036.659-.295 1.218-.751 1.927-.932.629-.161 1.307-.03 1.784-.566.253-.284.41-.574.723-.813.377-.293.749-.352 1.207-.384.538-.038 1.099-.427 1.48-.778.255-.236.398-.539.499-.864a.8.8 0 0 0 .004-.333 1.26 1.26 0 0 1 .035-.637.1.1 0 0 0 .063-.098c0-.073.094-.176.103-.274.038-.382.545-.391.821-.537.44-.224.657-.89.7-1.342.046-.562-.311-1.056-.637-1.468-.552-.693.566-1.274.651-1.939.051-.42-.276-.804-.496-1.12-.564-.824.112-1.635.634-2.279.308-.384.816-.845.851-1.37.021-.318-.037-.6-.103-.906-.035-.164-.035-.326-.04-.492-.009-.302.286-.274.36-.007.136.494.166.855.667 1.091.203.096.444.106.664.087.103-.009.206-.04.307-.063.519-.122.589.452.369.705-.262.309-.755.424-1.097.623-.351.203-.512.62-.577 1-.068.386.049.756.297 1.049.14.164.364.239.561.311.091.036.297.043.39.05.503.032.646.269.555.728-.15.782-2.271 1.499-1.067 2.427.505.388.891.386 1.497.271.25-.049 1.265-.426 1.118.085-.182.641-.877.548-1.347.826-.419.249-.44.764-.33 1.176.218.801-.849.869-1.066 1.506-.162.473.126 1.059.306 1.478.164.382.348.749.55 1.112.278.504.374.951.418 1.518.059.731.325 1.279.681 1.902.388.672.365 1.391.615 2.103.374 1.059-.351 1.738-1.043 2.403-.405.387-.435.918-.435 1.443 0 .422-.07.785-.227 1.176-.157.398-.115.817-.222 1.229-.091.359-.15.651-.211 1.019-.046.305-.365.534-.538.773-.327.466-.049 1.22.108 1.686.154.466.199.937.573 1.284.222.208.51.25.304.714-.056.129-.133.248-.199.375-.089.166-.119.393-.037.569.103.216.238.382.393.562.395.464.287.876.023 1.335-.227.396-.03.953-.005 1.375.043.625-.231 1.722.323 2.19.04.035.087.044.136.019.414-.223.475-.642.643-1.043.166-.393.622-.538 1.024-.477.459.072.314.618.068.789-.128.087-.25.171-.367.272a.78.78 0 0 0-.239.48c-.065.571-.35.777-.802 1.061-.439.276-.589.559-.631.979-.042.002-.08.023-.089.082-.056.4-.096.923.187 1.255.288.34.912.494.793 1.087-.054.279-.4.428-.487.7-.147.476.012 1.01.29 1.408.143.208.372.358.562.52.453.384.383.913.386 1.44.002.633.252.984.61 1.471.498.679.075 1.597.386 2.333.185.44.372.819.398 1.304.018.326-.008.626.093.944.147.48.313.775.129 1.295-.106.298-.237.541-.148.858.045.152.211.311.332.4.124.089.828.375.562.644-.274.279-.197.628.037.918.374.466.632.806.199 1.361-.098.124-.225.307-.213.478.024.368.143.66.07 1.044-.063.352-.046.614.056.951.246.778.335 1.565.421 2.378.087.822.017 1.663.127 2.478.1.747.4 1.33.786 1.962.212.352.402.705.533 1.099.135.405.033.852.138 1.265.166.66.486 1.498 1.012 1.943.37.31.29.6.349 1.024.051.365.227.574.503.81.416.359.425.743.468 1.256.03.332.233.637.378.927.155.314.295.586.534.85.318.352.072.766.248 1.141.341.731 1.003 1.241 1.295 2.024.26.702.389 1.391.91 1.962.264.293.639.42.854.769.224.358.196.929.313 1.33.068.232.257.407.437.546.199.147.585.077.735.227q.03.03.065.03a.35.35 0 0 0 .204.082c-.087 0 .033.185.04.185.098.178.346.352.058.602-.25.218-.372.67-.234.97.183.4.526.442.917.541.622.152.585 1.279.716 1.771.166.623.907.908.404 1.625-.287.407-.222.813-.004 1.232.385.738 1.089 1.445.942 2.337-.091.532.14.947.51 1.305.257.243.678.569.61.977-.042.274-.119.48-.11.765.01.282.094.56.15.834.089.419-.019.794.007 1.213.016.331.154.654.262.958.159.443.243.851.299 1.317.092.784.279 1.557.412 2.335.04.227.206.468.313.667.181.333.321.682.494 1.017.199.386.383.759.458 1.187.049.291.108.567.241.827.138.265.51.438.683.682.257.363.37.861.512 1.276.12.34.211.672.295 1.021.028.115.122.274.187.419-.019.026-.028.057-.014.087.278.668.407 1.422.746 2.059.309.583.688.897 1.265 1.183.721.356 1.359.946 1.827 1.592.414.569.643 1.242 1.09 1.792.248.302.547.532.779.855.22.311.351.667.442 1.033.084.342.035.705.121 1.054.089.36.37.7.587.993.197.262.445.473.627.747.208.311.274.761.33 1.124.115.787.737 1.417.975 2.167.239.758.36 1.543.629 2.3.124.349.283.679.382 1.037.114.426.049.869.121 1.3.112.672.576 1.202.926 1.764.244.393.344 1.159.859 1.33.343.117.615.07.879.419.276.356.442.719.61 1.136.054.134.195.818-.191.508-.215-.175-.358-.395-.611-.531-.215-.117-.556-.033-.655.201-.177.422.024.888.202 1.272.346.761.839 1.48 1.089 2.276.258.813.255 1.71.295 2.556.031.749.257 1.424.512 2.124.145.396.288.792.414 1.195.138.447.494.89.4 1.386-.098.508-.397.698-.117 1.216.26.48.777.803 1.132 1.206.414.468.463 1.218.807 1.745.393.602 1.162 1.058 1.707 1.515.515.433.987.876 1.45 1.363.321.342.784.794 1.291.799.606.005.969.22 1.051.876.025.197.142.382.271.524.234.263.507.467.783.68.342.269.632.595.969.866.395.321.797.342 1.249.171.43-.166.947.979 1.375 1.139.601.222 1.209.098 1.831.056.596-.04 1.312.37 1.859.007.159-.108.288-.284.419-.424q0-.002.002-.003a.1.1 0 0 0 .026-.046c.147-.509.732-.811 1.155-1.066.232-.143.496-.239.732-.382.26-.157.48-.37.747-.517.205-.113.428-.197.633-.312.206-.112.365-.349.552-.492.379-.286 1.027-.1 1.467-.335.678-.36.626-1.604.687-2.239.061-.627.11-1.255.164-1.883q.04-.421.082-.843c.035-.358-.014-.876.194-1.187.274-.406.725-.759 1.099-1.073.236-.199.496-.354.791-.447.28-.094.704.163.977.234.877.222 1.544-.174 2.18-.719.571-.485 1.235-.169 1.878-.096.54.058 1.09.004 1.628-.073.608-.087 1.878-.101 1.997-.895.059-.011.105-.061.08-.133-.157-.417-.279-.827-.557-1.183-.369-.475-.879-.803-1.305-1.223-.507-.494-.596-1.14-.435-1.801.105-.435.295-.665.65-.913.148-.103.26-.209.363-.354.292-.41.605-.822.851-1.257.335-.612.931-1.08 1.511-1.455a1.14 1.14 0 0 0 .5-.848c.021-.391-.063-.541-.343-.81-.48-.45.36-.977.661-1.27.363-.349.768-.524 1.268-.398.321.082.606.291.919.401.456.161 1.022.19 1.502.164.664-.04 1.272-.312 1.922-.028.662.292 1.275-.211 1.647-.736.161-.22.351-.627.271-.913-.105-.389-.704-.368-.748-.848a.11.11 0 0 0 .074-.103v-.075c0-.052-.035-.091-.081-.108-.035-.672-.035-1.344-.052-2.019-.016-.632-.154-1.274-.112-1.902.042-.555-.133-1.086-.133-1.648 0-.621.074-1.228.098-1.846.04-1.169-.491-2.155-.994-3.16-.398-.794.411-1.231.528-1.955.094-.579-.486-.979-.493-1.548-.009-.605.512-1.085.566-1.684.033-.354.028-.703.1-1.052.082-.384.398-.705.641-.991.393-.466.824-.901 1.216-1.372.349-.412.847-.705 1.153-1.15.597-.86.365-1.504-.166-2.319-.308-.475.075-.813.564-.838.182-.01.292-.106.442-.199.297-.185.463-.399.594-.673a.1.1 0 0 0 .042.003c.024-.005.042-.007.066-.01.032-.007.075-.044.079-.079.033-.239.358-.562.473-.771.182-.325.339-.672.505-1.007.346-.698.673-1.485.821-2.253.203-1.056.044-2.281-.531-3.199-.33-.525-.922-.801-1.27-1.314-.136-.199-.346-.347-.54-.485-.136-.099-.279-.188-.414-.279a1.06 1.06 0 0 1-.323-.349q.365-.491.678-.192c.321.218.664.529 1.071.375.332-.122.433-.576.473-.881.161-1.173-.611-2.375-1.076-3.394-.274-.594-.547-1.117-1.036-1.555-.4-.358-.461-1.178-.131-1.597.166-.218.54-.206.694-.447a2.21 2.21 0 0 0 .283-1.565c-.063-.351-.163-.693-.25-1.04-.105-.431-.105-.885-.175-1.323-.126-.78-.489-1.473-.73-2.216-.274-.85-.566-1.728-.636-2.621-.042-.513.026-.983.154-1.48.166-.625.555-.951 1.088-1.281.751-.459.97-1.337 1.319-2.082.435-.932 1.134-1.548 2.011-2.052.784-.447 2.575-1.052 3.113.087-.082.051-.061.208.059.208h.063c.187.307.362.658.739.752.564.143.968-.213 1.373-.571.409-.361.697-.841.991-1.293.4-.621.924-1.146 1.298-1.783.162-.278.258-.55.461-.805.185-.235.405-.438.597-.666.364-.433.456-.927.544-1.47.108-.68.725-1.846 1.591-1.417.252.124.43.445.622.644.159.168.395.232.615.274.519.107 1.106-.099 1.618-.169.791-.108 1.57-.447 2.302-.745.624-.25 1.272-.454 1.887-.726.627-.276 1.254-.702 1.836-1.07 1.137-.719.971-2.162.922-3.312-.012-.255.037-.506.023-.763-.012-.244-.164-.464-.274-.675-.46-.871.751-1.742 1.448-1.93a.2.2 0 0 0 .04-.021v-.002a.1.1 0 0 0 .037-.052c.248-.494.891-.698 1.333-.974.62-.391 1.067-.998 1.642-1.443.59-.454 1.273-.63 1.981-.789.702-.159 1.282-.408 1.85-.85.912-.71 2.351-1.431 2.774-2.607.278-.78-.007-1.593.253-2.38.257-.782.909-1.286 1.52-1.782.622-.511 1.426-.63 2.133-1.024.739-.41 1.499-.78 2.243-1.18 1.335-.724 1.798-2.15 2.586-3.356.95-1.459 2.166-2.654 3.317-3.944.435-.488.711-.996.809-1.64.122-.792.823-1.248 1.396-1.721.695-.572 1.329-1.2 1.925-1.869.636-.717 1.492-1.136 2.219-1.736a.1.1 0 0 0 .043-.028c.287-.288.381-.714.257-1.092-.133-.405-.861-.269-1.144-.267-.711.005-.608-.587-.276-.955.211-.232.538-.358.8-.522l.465-.288c.356-.221.763.016.798.423.026.263-.056.544.014.804.108.382.402.606.798.63.196.012.399-.152.544-.26.412-.309.847-.462 1.324-.63.683-.248 1.233-.635 1.841-1.026.706-.452 1.49-.668 2.294-.869.641-.162 1.265-.342 1.848-.656.673-.358 1.284-.941 1.852-1.443.592-.526 1.081-1.147 1.591-1.747.472-.557 1.078-1.016 1.515-1.597.374-.492.547-.988.496-1.607-.068-.852.601-1.571 1.195-2.105.372-.338.713-.691.795-1.204a.9.9 0 0 0-.063-.523 3 3 0 0 0-.203-.33c-.185-.271-.092-.55-.014-.836.173-.604-.281-1.244-.63-1.689-.292-.372-.612-.728-.858-1.133-.159-.265.129-1.227.517-1.227a.1.1 0 0 0 .1-.068l.007-.021c.054-.017.089-.057.167-.129.262-.241.573-.431.851-.649.608-.478.863-1.258 1.618-1.555.384-.15.735-.188 1.137-.248.243-.038.596-.068.8-.232.344-.279.62-.565 1.043-.722.421-.154.863-.159 1.305-.143.479.019.971.014 1.373-.276.5-.358.346-1.045.694-1.49.349-.445 1.104-.203 1.298-.871.087-.302.075-.613.159-.916.087-.313.344-.81.835-.564.333.166.405.522.41.85.004.354-.113.909.201 1.183.36.316.746.246 1.153.051.421-.201.694-.452 1.207-.349.269.059.481.12.753.075.463-.072.779-.644.912-1.039.082-.244.145-.488.259-.72.265-.531.784-.236.976.19.208.457.549.633 1.038.515.398-.098.903-.334 1.209-.611.138-.129.204-.311.253-.489.126-.434.023-.836.248-1.27.238-.468.344-.904.386-1.424a.3.3 0 0 0 .065-.091c.04-.068-.004-.152-.079-.166-.089-.506-.44-.879-.819-1.218-.718-.649-.702-1.474-.521-2.347.042-.22-.038-.522-.08-.738-.042-.204-.016-.518-.117-.705-.084-.161-.145-.309-.299-.414-.55-.389-.723-.801-.564-1.457.152-.626.484-1.155.346-1.82-.037-.187-.161-.342-.278-.48-.108-.127-.211-.23-.304-.37-.288-.429-.005-.705.227-1.019.559-.754.489-1.832-.349-2.307-.407-.227-.746-.321-1.197-.209-.987.251-.44-.695-.335-.857.075-.117.15-.229.216-.356.131-.253.1-.571.088-.843a3.1 3.1 0 0 0-.528-1.618c-.248-.366-.805-.375-1.191-.443-1.078-.187-1.01-1.536-.416-2.188.419-.461.926-.782 1.214-1.351.227-.443.278-1.052.159-1.529-.108-.441-.208-.815-.211-1.282 0-.337-.168-.639-.311-.932-.187-.386-.245-.953-.785-.986-1.079-.068-2.023-.381-3.031-.756a3.4 3.4 0 0 1-1.203-.766c-.245-.258-.388-.647-.587-.942a1.73 1.73 0 0 1-.269-1.379c.12-.544.623-.759 1.083-.939.433-.169 1.001-.363 1.256-.783.136-.222.18-.419.155-.679-.066-.632.233-1.014.512-1.532.217-.407.758-.536 1.162-.658a4.5 4.5 0 0 0 1.001-.452c.253-.15.37-.253.711-.29.208-.026.501.077.723.098.325.026.634-.178.832-.414a.1.1 0 0 0 .026-.047c.045-.012.082-.045.082-.106 0-.271.255-.562.278-.859.038-.436.04-.953-.131-1.363-.156-.382-.612-.464-.966-.551-.75-.178-.678-.716-.923-1.307-.115-.276-.396-.548-.707-.569-.245-.016-.437.045-.659.145-.491.216-.903.207-1.422.085-.742-.171-.428-1.033-.894-1.384-.252-.19-.547-.244-.8-.457a19 19 0 0 0-.818-.658c-.243-.181-.522-.408-.807-.523-.299-.121-.624-.231-.669-.646-.028-.239.122-.443.243-.621.164-.234.33-.44.419-.712.124-.381-.058-.78.108-1.166.135-.314.538-.511.806-.691.298-.204.599-.4.892-.614.276-.201.907-.585.781-1.018-.054-.181-.152-.324-.253-.481-.126-.203.07-.564.274-.36.093.089.166.199.238.304.36.523.47 1.017.594 1.635.209 1.042.81 1.979 1.965 1.911.781-.042.702-.939.451-1.475-.145-.309.143-.377.37-.235.089.057.178.12.271.16.138.058.309.114.456.04.318-.162.414-.474.379-.806.042-.012.08-.045.073-.103-.012-.12-.092-.41.105-.253.135.108.255.236.374.358.253.258.498.534.718.822.657.865 1.296 1.722 2.154 2.401.339.267.695.494 1.106.635.393.133.898-.155 1.219-.342.304-.183.468-.352.648-.654.126-.206.241-.412.4-.595.292-.337.69.038.835.331a.09.09 0 0 0 .109.053c.225.317.316.621.326 1.022.009.377-.143.595-.286.927-.234.534.229 1.19.505 1.602.176.265.29.494.136.815a.5.5 0 0 0-.054.209c0 .246.225.295-.091.599-.07.071-.222.16-.271.251-.321.606-.148 1.056-.019 1.684.108.532.136.937.592 1.276.521.391 1.316.242 1.913.354.617.117.907.689 1.593.621.159-.012.294-.117.425-.197.33-.202 1.064.19 1.38.311 1.041.392 2.603.462 3.417-.428.69-.757 1.553.096 2.344.234.254.047.498-.002.736-.08.517-.168.922-.337 1.481-.374.786-.054 1.548-.162 2.324.018.775.178 1.474.445 2.283.473.477.019 1.05-.037 1.488-.243.156-.073.254-.265.327-.408.084-.175.136-.309.306-.442.241-.181.515-.024.767 0 .356.037.653-.071.99-.171.62-.192.851.206 1.342.426.667.302 1.581.319 2.089.881-.279.058-.714-.08-.98.009-.25.084-.538.368-.667.59-.362.616-.084 1.218.4 1.616.699.581-.194.881-.507 1.16-.272.243-.419.529-.508.88-.157.612.639 1.609-.5 1.574-.538-.016-1.02.01-1.093.633-.053.428.085.845.101 1.267.002.089-.187.48-.171.637.005.072.094.405-.065.323-.211-.112-.316-.436-.547-.506-.297-.094-.571-.033-.854.098-.402.188-.737.474-1.067.769-.182.161-.371.313-.561.47-.11.094-.372.466-.507.485-.038.005-.075.047-.08.08q-.006.032-.012.065a.1.1 0 0 0 .012.064q-.005.006-.009.016a.24.24 0 0 0-.087.059c-.182.185-.624.023-.861.004-.582-.047-1.146.403-1.475.827-.363.461-.363 1.033-.344 1.59.016.516-.094.914-.342 1.359-.17.304-.301.602-.362.946-.047.279.086.611-.049.876-.103.197-.248.328-.253.569-.011.647.632 1.359.882 1.942.306.733.762 1.365 1.022 2.126.26.766.143 1.623.435 2.375.11.288.435.476.741.387.412-.117.506-.455.531-.85.012-.155.003-.296.031-.452.096-.516.573.297.58.325.091.237.07.511.105.759.07.482.173.967.51 1.335.299.328.767.251 1.148.169.608-.132 1.144.016 1.595-.485.173-.188.26-.476.349-.71.128-.342.29-.66.369-1.021.143-.67-.308-1.478-.512-2.089-.283-.853.402-1.117.922-1.607.388-.368.404-1.108.413-1.607.012-.548-.315-1.578.613-1.522.169.012.44-.005.562-.136.647-.698.816.527.884.85.037.195.173.333.332.441.453.316.652.611.631 1.182-.026.733.101 1.314.424 1.982.336.693.877 1.34.954 2.122.035.349-.084.625-.171.948-.019.068.002.146.016.211.08.323-.028.487-.121.766-.166.511.262 1.22.496 1.647.18.334.397.648.589.976.22.377.533.609.554 1.082.035.637-.323 1.263-.086 1.881.089.23.262.431.383.646.279.481.229 1.031.035 1.52-.238.598.152 1.359.337 1.923q.167.526.281 1.066c.044.209.065.419.072.632.01.242-.121.462-.121.701.002.349.086.855.423 1.049.339.197.79.323 1.139.08.189-.136.225-.434.255-.642.115-.827.725-.127 1.076.044.428.206.963.26 1.424.389a.6.6 0 0 0 .197.024c.042.061.142.082.194 0 .009-.014.023-.029.032-.04q.04-.014.075-.031l-.007-.014a.2.2 0 0 1 .103-.009.11.11 0 0 0 .105-.082.11.11 0 0 0 .082-.108c0-.115.136-.304.169-.435.065-.251.018-.539-.005-.792-.042-.447.014-.757.339-1.094.199-.204.349-.391.489-.642.271-.484.411-.997.285-1.545-.086-.37-.332-.703-.463-1.057-.164-.438.108-.812.271-1.201.209-.501.08-1.143-.091-1.628-.1-.286-.264-.539-.409-.801-.18-.328-.215-.752-.267-1.115-.156-1.084-1.005-2.665-.17-3.628.456-.529 1.403-.26 2.032-.391.426-.084.648-.611.737-.977.259-1.089.166-2.36-.513-3.279-.231-.318-.449-.644-.247-1.054.117-.243.318-.454.467-.676.218-.314.349-.776.166-1.136-.205-.403-.25-.745-.271-1.195-.016-.375-.161-.742-.185-1.119s.129-1.509.548-1.83a.26.26 0 0 0 .145-.072q.012.004.028.005c.17 0 .372-.019.495-.148.34-.34.793-.396 1.137-.03.206.22.349.426.629.559.414.199.838-.107 1.16-.33.433-.295.786-.021 1.132.241.258.197.505.249.828.237.887-.028 1.691-1.443 1.439-2.258-.117-.386-.351-.752-.087-1.134.166-.248.479-.475.603-.744.347-.752.066-1.567.419-2.326.264-.565.812-.958 1.099-1.52.344-.677-.11-1.478.426-2.103.4-.469.8-.848 1.041-1.429.271-.658.084-1.494.056-2.183-.024-.525-.026-.888-.393-1.288-.192-.211-.416-.375-.587-.604-.311-.417-.262-1.005-.068-1.457.274-.637 1.003-.86 1.478-1.314.461-.445.76-1.045 1.032-1.614.397-.836.98-1.719 1.164-2.625.075-.368-.084-.745-.091-1.111-.005-.311.133-.536.239-.784a.12.12 0 0 0 .077-.075.11.11 0 0 0 .079-.108c.061-.705.863-1.169.466-1.941a2.2 2.2 0 0 0-.253-.38c-.245-.302-.341-.525-.304-.918.049-.543-.051-1.063-.201-1.583-.133-.462-.351-.839-.571-1.256-.425-.812.676-1.522 1.303-1.763.182-.071.351-.157.531-.232.241-.101.503-.084.76-.134.318-.061.73-.342.9-.618.094-.152.085-.136.085-.321 0-.356.215-.639.444-.899.37-.427.83-.773 1.216-1.19.393-.424.77-.761 1.261-1.075.407-.262.767-.548 1.062-.937.664-.876.64-2.586 2.048-2.59.672-.003 1.401-.321 1.75-.914.063.014.138-.021.138-.105 0-.424 1.235-.103 1.56-.166.559-.113.718-.928 1.356-.794.349.072.491.578.634.847.136.251.309.481.494.698.357.417.923.79 1.447.944.522.15 1.048-.194 1.555-.262.307-.04.613-.244.726-.543.173-.46.098-.881-.197-1.268a7 7 0 0 0-1.298-1.33"/><mask id="c" width="152" height="86" x="224" y="188" maskUnits="userSpaceOnUse" style="mask-type:luminance"><path fill="#fff" d="M224.105 188.256h151.014v85.522H224.105z"/></mask><g mask="url(#c)"><path fill="#6D7280" fill-rule="evenodd" d="M299.07 255.941v-8.626h-3.682v-20.698h3.682v-8.624h1.199v8.624h3.682v20.698h-3.682v8.626zm70.961 10.832v-11.359h-3.682v-27.205h3.682V216.85h1.201v11.359h3.682v27.205h-3.682v11.359zm-32.021-67.935h3.636V188.76h1.202v10.078h3.68v24.153h-3.68v10.078h-1.202v-10.078h-3.682v-24.153zm14.192 15.034h3.637v-6.879h1.201v6.879h3.68v16.554h-3.68v6.88h-1.201v-6.88h-3.682v-16.554zm-127.729 9.406h3.637v-8.332h1.199v8.332h3.682v20.009h-3.682v8.335h-1.199v-8.335h-3.682v-20.009zm14.192 20.768h3.637v-6.42h1.199v6.42h3.682v15.46h-3.682v6.42h-1.199v-6.42h-3.682v-15.46zm14.192 9.559h3.637v-5.912h1.199v5.912h3.682v14.253h-3.682v5.912h-1.199v-5.912h-3.682v-14.253z" clip-rule="evenodd"/></g><mask id="d" width="138" height="80" x="195" y="185" maskUnits="userSpaceOnUse" style="mask-type:luminance"><path fill="#fff" d="M195.891 185h136.631v79.044H195.891z"/></mask><g mask="url(#d)"><path fill="#9CA3AF" fill-rule="evenodd" d="M309.625 196.618h3.636v-9.976h1.202v9.976h3.634v23.717h-3.634v9.976h-1.202v-9.976h-3.636zm-95.711 38.359v-8.525h-3.634V206.19h3.634v-8.524h1.202v8.524h3.636v20.262h-3.636v8.525zm-14.192 28.619v-12.932h-3.634v-30.74h3.634v-12.93h1.202v12.93h3.636v30.74h-3.636v12.932zm85.155-15.052v-9.494h-3.637v-22.563h3.637v-9.495h1.199v9.495h3.637v22.563h-3.637v9.494zm-14.192 15.052v-7.895h-3.637v-18.767h3.637v-7.893h1.199v7.893h3.637v18.767h-3.637v7.895zm56.768-56.602v-5.024h-3.636v-11.942h3.636v-5.024h1.202v5.024h3.634v11.942h-3.634v5.024z" clip-rule="evenodd"/></g><g opacity=".69"><path fill="#636363" d="M184.864 153.687v-2.266l-.428-.382v-17.737l.428-.383v-2.265l.376-.337v-2.131a786 786 0 0 0-4.414.083v2.048l.376.337v2.242l.453.406h-.027v17.737h.027l-.453.406v2.242l-.376.337v2.234q2.195-.022 4.414-.039v-2.195zM171.024 153.971v-2.264l-.428-.381V133.6l.428-.382v-2.264l.376-.337v-2.09q-2.22.075-4.414.159v1.931l.377.337v2.24l.452.406h-.026v17.726h.026l-.452.405v2.24l-.377.337v2.135q2.192-.037 4.414-.07v-2.065zM157.987 154.186v-2.23l-.428-.376v-17.459l.428-.376v-2.229l.376-.333v-2.113q-2.224.113-4.414.235v1.878l.376.333v2.206l.453.399h-.027v17.459h.027l-.453.398v2.208l-.376.332v2.194q2.19-.054 4.414-.103v-2.091zM197.901 153.687v-2.265l-.428-.383v-17.737l.428-.382v-2.265l.376-.338v-2.245q-2.215.004-4.414.016v2.229l.377.338v2.243l.452.404h-.025v17.737h.025l-.452.406v2.242l-.377.337v2.146q2.199-.007 4.414-.01v-2.136zM146.354 154.668v-2.209l-.428-.373V134.78l.428-.373v-2.211l.376-.328v-2.116a656 656 0 0 0-4.414.311v1.805l.377.328v2.189l.452.395h-.026v17.306h.026l-.452.395v2.187l-.377.33v2.041q2.185-.07 4.414-.133v-1.908zM136.491 155.111v-2.187l-.426-.369v-17.127l.426-.369v-2.187l.376-.325v-2.057q-2.23.185-4.412.381v1.676l.376.325v2.166l.451.391h-.025v17.126h.025l-.451.391v2.165l-.376.325v1.951q2.179-.084 4.412-.163v-1.788zM126.63 155.605v-2.153l-.426-.363v-16.86l.426-.364v-2.151l.376-.322v-1.999q-2.237.226-4.412.464v1.535l.376.322v2.131l.451.384h-.025v16.86h.025l-.451.384v2.132l-.376.322v1.885q2.173-.102 4.412-.2v-1.685zM116.768 156.173v-2.108l-.428-.356v-16.507l.428-.356v-2.109l.376-.314v-1.937q-2.244.273-4.414.56v1.379l.377.312v2.088l.452.377h-.026v16.507h.026l-.452.378v2.086l-.377.313v1.839a936 936 0 0 1 4.414-.243v-1.596zM106.905 157.04v-2.086l-.426-.351v-16.334l.426-.351v-2.086l.376-.311v-1.71q-2.254.333-4.412.682v1.028l.376.311v2.064l.451.373h-.025v16.334h.025l-.451.373v2.064l-.376.311v1.601q2.153-.151 4.412-.297v-1.304zM97.044 157.544v-1.968l-.426-.331v-15.41l.426-.331v-1.968l.376-.292v-1.816q-2.274.415-4.412.847v.969l.376.292v1.948l.45.351h-.024v15.41h.025l-.451.351v1.948l-.376.293v1.896q2.131-.191 4.412-.373v-1.523zM87.184 158.794v-1.906l-.428-.322v-14.919l.428-.322v-1.904l.376-.283v-1.679c-1.539.359-3.013.728-4.413 1.101v.578l.376.283v1.886l.452.34h-.026v14.919h.026l-.452.342v1.886l-.376.282v1.683c1.386-.17 2.86-.336 4.413-.499v-1.184zM220.314 153.687v-2.266l.427-.382v-17.737l-.427-.383v-2.265l-.376-.337v-2.131q2.218.035 4.413.083v2.048l-.376.337v2.242l-.452.406h.026v17.737h-.026l.452.406v2.242l.376.337v2.234q-2.195-.022-4.413-.039v-2.195zM234.155 153.971v-2.264l.426-.381V133.6l-.426-.382v-2.264l-.378-.337v-2.09q2.221.075 4.414.159v1.931l-.376.337v2.24l-.451.406h.025v17.726h-.025l.451.405v2.24l.376.337v2.135q-2.191-.037-4.414-.07v-2.065zM247.193 154.186v-2.23l.426-.376v-17.459l-.426-.376v-2.229l-.377-.333v-2.113q2.223.113 4.413.235v1.878l-.377.333v2.206l-.451.399h.025v17.459h-.025l.451.398v2.208l.377.332v2.194q-2.19-.054-4.413-.103v-2.091zM207.279 153.687v-2.265l.427-.383v-17.737l-.427-.382v-2.265l-.377-.338v-2.245q2.217.004 4.414.016v2.229l-.376.338v2.243l-.453.404h.027v17.737h-.027l.453.406v2.242l.376.337v2.146q-2.197-.007-4.414-.01v-2.136zM258.825 154.668v-2.209l.426-.373V134.78l-.426-.373v-2.211l-.378-.328v-2.116q2.228.15 4.414.311v1.805l-.376.328v2.189l-.451.395h.025v17.306h-.025l.451.395v2.187l.376.33v2.041q-2.185-.07-4.414-.133v-1.908zM268.689 155.111v-2.187l.426-.369v-17.127l-.426-.369v-2.187l-.377-.325v-2.057q2.231.185 4.413.381v1.676l-.377.325v2.166l-.45.391h.024v17.126h-.024l.45.391v2.165l.377.325v1.951q-2.18-.084-4.413-.163v-1.788zM278.548 155.605v-2.153l.428-.363v-16.86l-.428-.364v-2.151l-.376-.322v-1.999q2.236.226 4.414.464v1.535l-.377.322v2.131l-.452.384h.025v16.86h-.025l.452.384v2.132l.377.322v1.885q-2.176-.102-4.414-.2v-1.685zM288.409 156.173v-2.108l.428-.356v-16.507l-.428-.356v-2.109l-.376-.314v-1.937q2.245.273 4.414.56v1.377l-.376.314v2.087l-.453.378h.027v16.507h-.027l.453.376v2.088l.376.313v1.839a928 928 0 0 0-4.414-.243v-1.596zM298.273 157.04v-2.086l.426-.351v-16.334l-.426-.351v-2.086l-.377-.311v-1.71q2.256.333 4.413.682v1.028l-.377.311v2.064l-.45.373h.024v16.334h-.024l.45.373v2.064l.377.311v1.601q-2.152-.151-4.413-.297v-1.304zM308.134 157.544v-1.968l.426-.331v-15.41l-.426-.331v-1.968l-.376-.292v-1.816q2.274.415 4.412.847v.969l-.376.292v1.948l-.451.351h.025v15.41h-.025l.451.351v1.948l.376.293v1.896a448 448 0 0 0-4.412-.373v-1.523zM317.995 158.794v-1.906l.428-.322v-14.919l-.428-.322v-1.904l-.376-.283v-1.679q2.31.54 4.414 1.101v.578l-.376.283v1.886l-.453.34h.027v14.919h-.027l.453.342v1.886l.376.282v1.683c-1.387-.17-2.861-.336-4.414-.499v-1.184z"/><path fill="#636363" d="M322.934 128.437c-.008-.67-.019-1.26-.028-1.757-20.007-10.956-65.801-18.616-119.101-18.616-55.723 0-103.237 8.372-121.662 20.13v1.619c18.427-10.751 65.939-18.406 121.662-18.406 52.974 0 98.527 6.918 118.725 16.837h.007z"/><mask id="e" width="2" height="9" x="322" y="139" maskUnits="userSpaceOnUse" style="mask-type:luminance"><path fill="#fff" d="M322.783 139.377h.652v8.358h-.652z"/></mask><g mask="url(#e)"><mask id="f" width="388" height="388" x="9" y="19" maskUnits="userSpaceOnUse" style="mask-type:luminance"><path fill="#000" fill-opacity=".6" d="M396.012 19.975H9.164v386.848h386.848z"/></mask><g mask="url(#f)"><mask id="g" width="2" height="9" x="322" y="139" maskUnits="userSpaceOnUse" style="mask-type:luminance"><path fill="#fff" d="M323.577 139.377h-.796v8.358h.796z"/></mask><g mask="url(#g)"><mask id="h" width="2" height="9" x="322" y="139" maskUnits="userSpaceOnUse" style="mask-type:luminance"><path fill="#fff" d="M322.799 139.615h.382v7.721h-.382z"/></mask><g mask="url(#h)"><path fill="#636363" d="M323.016 147.053c-.002-2.619-.006-5.089-.012-7.364l-.002-.001c.006 2.252.012 4.724.014 7.365"/></g></g></g></g><mask id="i" width="12" height="16" x="203" y="93" maskUnits="userSpaceOnUse" style="mask-type:luminance"><path fill="#fff" d="M203.781 93h10.746v15.332h-10.746z"/></mask><g mask="url(#i)"><path fill="#636363" fill-rule="evenodd" d="M214.051 94.46c-1.518-.536-3.066-.357-4.583-.06-1.101.208-2.203.328-3.304 0-.358-.118-.625-.238-.625-.714-.03-.446-.358-.685-.833-.654-.447.03-.684.297-.714.714-.031.178-.031.357-.031.536q0 2.696.017 5.395v8.642h1.034V99.74c1.161.451 2.874.577 3.98.345l1.785-.268c1.22-.178 2.44-.03 3.661.387v-5.566a4 4 0 0 1-.387-.179" clip-rule="evenodd"/></g><path fill="#636363" d="M322.906 129.458a2.1 2.1 0 0 0-.072-.509c-.054-.085 0 0-.234-.155-20.007-10.017-65.8-17.021-119.101-17.021-55.422 0-102.718 7.573-121.356 18.232v4.319c9.774-4.063 27.733-7.506 50.759-9.843 20.321-2.05 44.563-3.241 70.597-3.241 52.578 0 97.852 4.856 118.273 11.838.019.008 1.135.339 1.137.378l.028.01a81 81 0 0 0-.002-.95c.008-.436-.001-1.808-.029-3.058m-231.908.681a.12.12 0 0 1-.124.118H89.33c-.07 0-.126-.053-.126-.118v-1.829c0-.065.056-.118.126-.118h1.543c.068 0 .124.053.124.118zm10.582-2.427a.18.18 0 0 1-.186.177h-2.309c-.104 0-.188-.079-.188-.177v-2.738c0-.098.084-.176.188-.176h2.309c.102 0 .186.08.186.176zm10.34-1.867a.22.22 0 0 1-.225.213h-2.778c-.125 0-.226-.095-.226-.213v-3.292c0-.118.101-.213.226-.213h2.778a.22.22 0 0 1 .225.213zm10.328-1.49a.254.254 0 0 1-.258.251h-3.156a.253.253 0 0 1-.257-.251v-3.857c0-.137.116-.249.257-.249h3.156c.143 0 .258.112.258.249zm9.55-1.114a.28.28 0 0 1-.284.279h-3.484a.28.28 0 0 1-.283-.279v-4.308c0-.153.127-.279.283-.279h3.484c.157 0 .284.126.284.279zm10.199-.95a.31.31 0 0 1-.317.303h-3.899a.31.31 0 0 1-.318-.303v-4.689c0-.168.143-.305.318-.305h3.899c.174 0 .317.137.317.305zm11.321-.913a.34.34 0 0 1-.347.328h-4.281a.337.337 0 0 1-.347-.328v-5.074c0-.181.155-.328.347-.328h4.281c.191 0 .347.147.347.328zm12.939-.737a.36.36 0 0 1-.37.35h-4.55a.36.36 0 0 1-.37-.35v-5.393a.36.36 0 0 1 .37-.35h4.55a.36.36 0 0 1 .37.35zm13.366-.53a.38.38 0 0 1-.391.369h-4.794a.38.38 0 0 1-.39-.369v-5.685c0-.202.174-.367.39-.367h4.794c.216 0 .391.163.391.367zm13.065-.242a.396.396 0 0 1-.406.384h-5.003a.396.396 0 0 1-.406-.384v-5.93c0-.211.182-.382.406-.382h5.003c.224 0 .406.171.406.382zm13.345-.13a.4.4 0 0 1-.41.388h-5.05c-.225 0-.41-.175-.41-.388v-5.985c0-.213.185-.387.41-.387h5.05c.225 0 .41.174.41.387zm12.405.081a.4.4 0 0 1-.409.387h-5.045a.4.4 0 0 1-.409-.387v-5.979c0-.213.183-.387.409-.387h5.045a.4.4 0 0 1 .409.387zm13.469.257a.385.385 0 0 1-.393.373h-4.857c-.218 0-.395-.168-.395-.373v-5.757c0-.205.177-.373.395-.373h4.857c.216 0 .393.168.393.373zm12.577.521c0 .199-.171.36-.382.36h-4.701c-.212 0-.383-.161-.383-.36v-5.574c0-.199.171-.36.383-.36h4.701c.211 0 .382.161.382.36zm13.3.707c0 .18-.155.327-.346.327h-4.257c-.191 0-.347-.147-.347-.327v-5.046c0-.181.156-.327.347-.327h4.257c.191 0 .346.146.346.327zm12.403 1.062a.32.32 0 0 1-.324.308h-3.999a.32.32 0 0 1-.325-.308v-4.739c0-.169.146-.306.325-.306h3.999c.178 0 .324.137.324.306zm10.174.981a.28.28 0 0 1-.287.272h-3.544a.28.28 0 0 1-.287-.272v-4.199a.28.28 0 0 1 .287-.272h3.544a.28.28 0 0 1 .287.272zm9.77 1.205c0 .133-.115.242-.258.242h-3.156c-.142 0-.257-.109-.257-.242v-3.742a.25.25 0 0 1 .257-.243h3.156c.143 0 .258.109.258.243zm9.186 1.447a.22.22 0 0 1-.225.213h-2.783c-.125 0-.226-.095-.226-.213v-3.297c0-.118.101-.213.226-.213h2.783a.22.22 0 0 1 .225.213zm8.583 1.648c0 .095-.081.171-.182.171h-2.232c-.101 0-.182-.076-.182-.171v-2.649c0-.095.081-.171.182-.171h2.232c.101 0 .182.076.182.171zm8.803 2.128c0 .07-.061.128-.134.128h-1.653a.13.13 0 0 1-.133-.128v-1.957c0-.07.06-.127.133-.127h1.653c.073 0 .134.057.134.127z"/><mask id="j" width="242" height="33" x="82" y="156" maskUnits="userSpaceOnUse" style="mask-type:luminance"><path fill="#fff" d="M82 156.49h241.183v31.731H82z"/></mask><g mask="url(#j)"><path fill="#636363" d="M323.01 167.498c.004-1.879.007-3.745.008-5.581-20.873-3.002-67.543-5.093-121.782-5.093-52.019 0-97.076 1.923-119.091 4.729v6.824c24.067-2.718 64.56-4.6 111.319-4.905v1.216c-46.756.304-87.252 2.186-111.32 4.903v16.151c30.707 1.533 72.329 2.477 118.162 2.477 48.115 0 91.588-1.039 122.664-2.71.011-4.079.022-8.275.031-12.454l.008-4.339c-26.036-2.38-65.672-3.941-110.39-4.064v-1.216c44.717.123 84.356 1.684 110.391 4.062m-9.318-4.724c0-.232.216-.421.483-.421h2.244c.267 0 .485.189.485.421v2.657c0 .231-.218.421-.485.421h-2.244c-.267 0-.483-.19-.483-.421zm-17.308-1.371c0-.232.236-.422.527-.422h2.441c.292 0 .528.19.528.422v2.657c0 .231-.236.421-.528.421h-2.441c-.292 0-.527-.19-.527-.421zm-20.103-.978c0-.249.253-.449.564-.449h2.609c.312 0 .564.2.564.449v2.839c0 .248-.252.449-.564.449h-2.609c-.311 0-.564-.201-.564-.449zm-24.171-1.071c0-.248.269-.45.602-.45h2.777c.332 0 .6.202.6.45v2.84c0 .247-.268.449-.6.449h-2.777c-.333 0-.602-.202-.602-.449zm-25.516-.517c0-.275.289-.5.647-.5h2.994c.357 0 .647.225.647.5v3.161c0 .275-.29.501-.647.501h-2.994c-.358 0-.647-.226-.647-.501zm-135.311 6.667c0 .277-.252.5-.561.5h-2.6c-.31 0-.561-.223-.561-.5v-3.159c0-.277.252-.501.561-.501h2.6c.309 0 .56.224.56.501zm20.523-1.323c0 .275-.268.499-.599.499h-2.773c-.331 0-.6-.224-.6-.499v-3.161c0-.275.269-.5.6-.5h2.773c.331 0 .599.225.599.5zm19.579-.994c0 .276-.272.501-.605.501h-2.796c-.335 0-.605-.225-.605-.501v-3.16c0-.275.27-.499.605-.499h2.796c.333 0 .605.224.605.499zm20.854-.662c0 .277-.29.501-.646.501h-2.996c-.358 0-.647-.224-.647-.501v-3.159c0-.277.291-.501.647-.501h2.996c.357 0 .646.224.646.501zm26.908-.763c0 .275-.29.499-.646.499h-2.996c-.358 0-.647-.224-.647-.499v-3.161c0-.277.291-.5.647-.5h2.996c.357 0 .646.223.646.5zm-77.562 23.551h-3.162v-8.295h3.162zm60.556 1.197h-4.879v-10.641h4.879zm144.472-9.492h3.163v8.295h-3.163zm-64.566-1.149h4.879v10.641h-4.879zm-31.835-5.512v15.255h-14.441v-17.038h.056a7 7 0 0 1-.032-.637 7.198 7.198 0 0 1 14.394 0c0 .214-.014.427-.033.637h.056z"/></g><path fill="#636363" d="M202.562 121.566c-55.185.081-102.13 5.51-120.42 13.114v2.985c24.174-6.31 68.564-10.541 119.341-10.541q.539 0 1.079.002.538-.002 1.077-.002c50.776 0 95.167 4.231 119.34 10.541v-2.985c-18.289-7.604-65.233-13.033-120.417-13.114"/></g><g filter="url(#k)"><circle cx="237" cy="192" r="34" fill="#4A91F2"/></g><path fill="url(#l)" d="M117.752 80.992v-2.129h3.25q.834 0 1.409-.258.604-.26.92-.72.317-.488.317-1.179 0-1.034-.691-1.553-.69-.517-1.955-.517h-2.013v12.597h2.473q.949 0 1.697-.23.747-.26 1.179-.806.46-.575.46-1.553 0-.633-.259-1.093a2.06 2.06 0 0 0-.719-.748 3.1 3.1 0 0 0-1.064-.402 5.4 5.4 0 0 0-1.294-.144h-3.71v-2.646h4.256q1.467 0 2.848.316t2.502 1.036a5.3 5.3 0 0 1 1.783 1.783q.69 1.065.69 2.588 0 2.014-.978 3.25-.949 1.237-2.703 1.84-1.755.576-4.142.576h-7.88V70.868h7.391q2.1 0 3.682.575 1.61.547 2.531 1.697.948 1.122.949 2.847 0 1.582-.949 2.704-.921 1.122-2.531 1.725-1.582.576-3.682.576zm19.587 4.831q0 1.15.432 1.812.431.633 1.495.633.719 0 1.208-.288.518-.288.805-.834t.288-1.323v-8.052h4.343V91h-4.343v-1.984a4.8 4.8 0 0 1-1.582 1.696q-.978.604-2.444.604-2.474 0-3.624-1.323-1.122-1.35-1.122-3.71V77.77h4.544zm22.036-17.256h4.343V91h-4.343zm-10.814 15.818q0-2.243.892-3.767.92-1.524 2.358-2.33a6.15 6.15 0 0 1 3.049-.805q1.668 0 2.933.834 1.294.834 2.042 2.387.748 1.524.748 3.681 0 2.129-.748 3.682t-2.042 2.387q-1.265.834-2.933.834a6.15 6.15 0 0 1-3.049-.806q-1.439-.805-2.358-2.33-.892-1.552-.892-3.767m4.573 0q0 1.035.431 1.812.431.748 1.151 1.18a3.2 3.2 0 0 0 1.582.402q.747 0 1.437-.403.72-.402 1.18-1.15.46-.777.46-1.84 0-1.065-.46-1.813-.46-.775-1.18-1.179a2.8 2.8 0 0 0-1.437-.402q-.864 0-1.582.431-.72.403-1.151 1.18-.43.747-.431 1.782m13.465 7.564h4.199q.086.805.46 1.352.402.546 1.064.805.662.288 1.496.288a3.3 3.3 0 0 0 1.668-.432q.747-.402 1.179-1.236.46-.805.46-2.014V77.77h4.17v12.942q0 2.531-1.006 4.113-.978 1.583-2.618 2.3-1.639.75-3.681.749-2.445 0-4.055-.748-1.581-.749-2.387-2.1-.805-1.323-.949-3.077m-.288-7.736q0-2.243.892-3.74.92-1.494 2.358-2.242a6.5 6.5 0 0 1 3.049-.748q1.668 0 2.933.805 1.295.777 2.042 2.272.748 1.496.748 3.653 0 2.128-.748 3.652-.747 1.495-2.042 2.301-1.265.776-2.933.776-1.61 0-3.049-.747-1.438-.777-2.358-2.272-.892-1.496-.892-3.71m4.573 0q0 1.006.432 1.754.431.72 1.15 1.093.719.375 1.582.374.747 0 1.438-.345a3.07 3.07 0 0 0 1.179-1.093q.46-.72.46-1.783 0-.806-.288-1.41a2.75 2.75 0 0 0-.719-1.006 2.9 2.9 0 0 0-.977-.604 3.2 3.2 0 0 0-1.093-.201q-.863 0-1.582.373-.719.375-1.15 1.093-.432.72-.432 1.755m20.487 7.075q-2.3 0-3.997-.834-1.668-.863-2.589-2.416-.92-1.554-.92-3.653 0-2.129.891-3.681.892-1.553 2.56-2.387 1.697-.834 3.998-.834t3.882.805q1.582.777 2.416 2.272.834 1.496.834 3.624v.633q0 .287-.057.489h-12.08V82.89h8.168l-1.035 1.323a1.7 1.7 0 0 0 .23-.49q.115-.315.115-.517 0-.863-.316-1.495a2.3 2.3 0 0 0-.892-.978q-.575-.345-1.352-.345-.977 0-1.639.431-.661.432-1.006 1.323-.316.863-.346 2.186 0 1.208.346 2.07.345.864 1.035 1.323.69.432 1.697.432 1.15 0 1.955-.432a3.2 3.2 0 0 0 1.323-1.294l3.883.95q-1.035 1.954-2.819 2.933-1.754.978-4.285.978m8.204-13.517h8.858v3.594h-8.858zm2.329-4.602h4.17V91h-4.17zM217.784 91l8.973-9.29q.805-.89 1.381-1.61.605-.72.891-1.41.317-.718.317-1.523 0-.46-.173-.92a2.2 2.2 0 0 0-.517-.806q-.345-.374-.863-.575-.518-.23-1.208-.23-.92 0-1.639.46-.69.46-1.065 1.294-.345.834-.345 1.927h-4.774q0-2.157.892-3.94.891-1.784 2.674-2.847 1.812-1.064 4.401-1.064 1.869 0 3.307.575 1.438.546 2.387 1.495.978.92 1.467 2.042t.489 2.272q0 1.64-.805 3.02a10.2 10.2 0 0 1-2.1 2.473l-4.688 4.2h8.053V91zm24.137-10.066q0 1.41.259 2.588.259 1.15.748 1.985.489.806 1.15 1.265.69.432 1.524.432t1.496-.432q.69-.46 1.179-1.265.489-.834.748-1.985.258-1.178.259-2.588 0-1.41-.259-2.56-.26-1.179-.748-1.984-.489-.834-1.179-1.265a2.56 2.56 0 0 0-1.496-.46q-.834 0-1.524.46-.661.43-1.15 1.265-.49.805-.748 1.984-.26 1.15-.259 2.56m-4.688 0q0-3.279 1.036-5.608 1.063-2.33 2.962-3.566 1.898-1.266 4.371-1.266 2.589 0 4.458 1.266 1.87 1.236 2.876 3.566 1.035 2.33 1.035 5.608 0 3.279-1.035 5.608-1.007 2.33-2.876 3.595-1.869 1.237-4.458 1.237-2.473 0-4.371-1.237-1.899-1.265-2.962-3.595-1.036-2.33-1.036-5.608M255.7 91l8.973-9.29q.805-.89 1.381-1.61.604-.72.891-1.41.317-.718.317-1.523 0-.46-.173-.92a2.2 2.2 0 0 0-.518-.806q-.345-.374-.862-.575-.519-.23-1.208-.23-.92 0-1.64.46-.69.46-1.064 1.294-.345.834-.345 1.927h-4.774q0-2.157.892-3.94.89-1.784 2.674-2.847 1.812-1.064 4.4-1.064 1.87 0 3.308.575 1.437.546 2.387 1.495.978.92 1.467 2.042t.489 2.272q0 1.64-.806 3.02a10.2 10.2 0 0 1-2.099 2.473l-4.688 4.2h8.053V91zm35.698-6.442q0 1.782-.719 3.077a5.96 5.96 0 0 1-1.898 2.128A8.4 8.4 0 0 1 286.164 91q-1.41.374-2.876.374-1.84 0-3.336-.374-1.495-.345-2.646-.92a15 15 0 0 1-2.1-1.323l1.899-3.998q.834.69 1.696 1.18.892.459 1.784.747.891.26 1.61.259 1.237 0 2.1-.316.863-.317 1.323-.978.46-.662.46-1.61 0-1.008-.576-1.611-.546-.633-1.438-.92a5.9 5.9 0 0 0-1.869-.288q-.777 0-1.725.115-.92.086-1.927.374a10.6 10.6 0 0 0-2.014.776l2.819-11.619h11.619v4.2h-8.053l-1.15 3.594a6.5 6.5 0 0 1 1.668-.518 9.7 9.7 0 0 1 1.84-.172q1.611 0 2.991.776 1.41.777 2.272 2.244.863 1.466.863 3.566" opacity=".6"/><mask id="m" width="133" height="157" x="215" y="148" maskUnits="userSpaceOnUse" style="mask-type:luminance"><path fill="#fff" d="M215 148h132.632v156.153H215z"/></mask><g mask="url(#m)"><path fill="#4A91F2" d="M343.253 162.194 238.02 148.262a4.563 4.563 0 0 0-5.12 3.919l-17.563 132.547a4.555 4.555 0 0 0 3.919 5.115l105.235 13.932a4.56 4.56 0 0 0 5.119-3.918l17.564-132.546a4.56 4.56 0 0 0-3.921-5.117"/></g><path fill="#fff" d="m222.836 283.043 99.969 13.237 16.868-127.283-99.972-13.235zm102.253 16.216-105.234-13.932 17.565-132.544 105.233 13.932z"/><path fill="#fff" d="m231.08 265.957 86.311 11.426.341-2.553-86.313-11.43zM230.516 270.211l86.31 11.428.339-2.553-86.31-11.428zM229.951 274.469l58.673 7.769.339-2.558-58.673-7.768zM232.957 251.795l86.313 11.428.337-2.554-86.311-11.427zM232.393 256.051l86.31 11.428.339-2.555-86.312-11.426zM231.83 260.31l58.673 7.768.337-2.557-58.673-7.769zM234.805 237.85l86.31 11.428.341-2.553-86.312-11.428zM234.24 242.106l86.311 11.428.339-2.553-86.313-11.428zM233.676 246.363l58.672 7.768.34-2.557-58.673-7.767zM236.738 223.26l86.313 11.428.339-2.553-86.313-11.43zM236.174 227.516l86.312 11.428.338-2.555-86.311-11.426zM235.611 231.773l58.673 7.77.337-2.559-58.672-7.767z"/><mask id="n" width="73" height="103" x="279" y="192" maskUnits="userSpaceOnUse" style="mask-type:luminance"><path fill="#fff" d="M279.146 192.371h71.855v102.247h-71.855z"/></mask><g mask="url(#n)"><path fill="#4A91F2" d="m338.658 250.177-2.033-4.62c7.653-9.312 9.563-22.355 4.633-33.561a32.36 32.36 0 0 0-29.618-19.322c-4.49 0-8.864.923-13.004 2.743-7.907 3.474-13.986 9.821-17.119 17.868s-2.945 16.829.533 24.732a32.36 32.36 0 0 0 28.114 19.287l2.148 4.883 10.745 24.429c2.068 4.701 6.94 7.734 12.411 7.734 2.137 0 4.232-.444 6.227-1.321 3.427-1.505 6.147-4.133 7.666-7.398 1.597-3.44 1.671-7.329.203-10.663z"/></g><path fill="#fff" d="m319.443 262.434-.748-1.557 14.754-7.081.748 1.558zm-3.178-6.187 14.754-7.08 1.904 3.965-14.751 7.082zm-4.67-7.913c-12.772 0-23.126-10.351-23.126-23.118 0-12.768 10.354-23.119 23.126-23.119s23.127 10.351 23.127 23.119-10.354 23.118-23.127 23.118m33.188 28.736-10.906-24.793-3.405-7.739c7.951-7.659 10.711-19.744 6.004-30.438-6.026-13.704-22.027-19.93-35.739-13.904-13.709 6.025-19.938 22.02-13.909 35.722 4.719 10.73 15.552 16.875 26.613 16.146l.205.465q.06-.001.117-.005l3.327 7.562 10.746 24.433c1.813 4.121 7.077 5.792 11.755 3.734 4.679-2.055 7.004-7.061 5.192-11.183M244.556 169.57l3.062.416-1.694 12.464-3.063-.417zm9.743 8.941q.099-.73-.132-1.161-.215-.428-.855-.515a1.53 1.53 0 0 0-.772.076q-.345.135-.569.449a1.75 1.75 0 0 0-.289.795l-.678 4.985-2.706-.368 1.113-8.19 2.706.368-.167 1.228a2.7 2.7 0 0 1 1.105-.919q.673-.29 1.582-.166 1.531.209 2.114 1.122t.382 2.391l-.716 5.27-2.796-.38zm7.058 1.866q-.09.659.13 1.178.222.503.684.837.48.338 1.068.417.498.067.963-.014a3.3 3.3 0 0 0 .895-.314q.428-.213.73-.571l-.356 2.617a3.5 3.5 0 0 1-1.143.407q-.668.108-1.593-.018-1.354-.184-2.367-.865a4.25 4.25 0 0 1-1.488-1.726q-.475-1.044-.301-2.326.177-1.3.911-2.161a4.26 4.26 0 0 1 1.895-1.265q1.158-.387 2.512-.203.925.126 1.537.427.615.282 1.001.643l-.358 2.636a2.2 2.2 0 0 0-.57-.749 3.2 3.2 0 0 0-.799-.525 3.1 3.1 0 0 0-.888-.266 2.26 2.26 0 0 0-1.143.134 2.1 2.1 0 0 0-1.32 1.707m6.056.823q.177-1.299.913-2.179a4.14 4.14 0 0 1 1.877-1.268q1.141-.388 2.476-.207 1.336.182 2.314.858a4.14 4.14 0 0 1 1.47 1.724q.493 1.046.316 2.346-.174 1.282-.928 2.158a4.14 4.14 0 0 1-1.877 1.268q-1.124.391-2.459.21t-2.331-.861a4.13 4.13 0 0 1-1.47-1.723q-.475-1.044-.301-2.326m2.76.376q-.087.64.117 1.14.207.482.6.789.394.307.928.38.516.07.977-.121.48-.189.789-.6.33-.428.417-1.068t-.117-1.14a1.77 1.77 0 0 0-.597-.807 1.85 1.85 0 0 0-.91-.377 1.9 1.9 0 0 0-.996.118 1.94 1.94 0 0 0-.791.618q-.33.426-.417 1.068m20.882 1.642-.716 5.27-2.707-.368.678-4.985q.102-.748-.097-1.156-.178-.423-.73-.498a1.2 1.2 0 0 0-.665.091 1.1 1.1 0 0 0-.495.44q-.189.319-.256.818l-.678 4.985-2.706-.368.677-4.985q.102-.748-.096-1.156-.179-.423-.731-.498a1.2 1.2 0 0 0-.665.091 1.13 1.13 0 0 0-.495.44q-.189.319-.256.818l-.678 4.985-2.599-.353 1.113-8.191 2.6.354-.165 1.211a2.63 2.63 0 0 1 1.066-.907q.656-.292 1.493-.178.962.13 1.483.564.523.416.684 1.109.532-.581 1.239-.847a3.1 3.1 0 0 1 1.544-.153q.962.13 1.463.579.521.435.676 1.162.155.729.019 1.726m5.533 6.301q-1.425-.193-2.405-.853a3.94 3.94 0 0 1-1.399-1.713q-.439-1.04-.263-2.339.18-1.317.862-2.204a3.7 3.7 0 0 1 1.786-1.263q1.12-.373 2.545-.179t2.336.825a3.4 3.4 0 0 1 1.304 1.61q.39.996.212 2.314l-.054.391a1.1 1.1 0 0 1-.076.298l-7.479-1.017.204-1.495 5.056.687-.752.732q.106-.112.184-.283a1 1 0 0 0 .114-.311 2.06 2.06 0 0 0-.07-.952 1.45 1.45 0 0 0-.469-.681 1.6 1.6 0 0 0-.808-.327q-.606-.083-1.051.129-.446.211-.735.734-.268.507-.397 1.324-.102.749.039 1.311.141.564.53.906.39.326 1.014.41.712.097 1.247-.102.553-.197.928-.69l2.324.914q-.805 1.124-1.992 1.579-1.169.458-2.735.245M242.809 196.142l.179-1.318 2.012.274q.516.07.894-.042a1.3 1.3 0 0 0 .63-.367q.238-.276.295-.704.088-.64-.296-1.019t-1.167-.485l-1.247-.17-1.06 7.799 1.531.208q.588.08 1.07 0a1.56 1.56 0 0 0 .798-.399q.333-.317.415-.923a1.36 1.36 0 0 0-.068-.698 1.3 1.3 0 0 0-.382-.523 1.9 1.9 0 0 0-.625-.339 3.3 3.3 0 0 0-.789-.198l-2.297-.312.223-1.639 2.635.359a8 8 0 0 1 1.736.435 4.9 4.9 0 0 1 1.462.852q.636.522.954 1.254.338.717.209 1.66-.17 1.246-.879 1.93-.691.685-1.828.912-1.135.208-2.613.008l-4.878-.664 1.694-12.463 4.576.622q1.3.177 2.231.666.951.474 1.424 1.263.494.775.348 1.843-.134.98-.815 1.594-.665.616-1.712.855-1.028.223-2.328.046zm9.842-3.83q.088-.641.604-.97a1.62 1.62 0 0 1 1.159-.259q.66.09 1.049.559.41.456.322 1.096t-.606.988q-.5.349-1.159.259a1.62 1.62 0 0 1-1.048-.56 1.35 1.35 0 0 1-.321-1.113m-.151 3.117 2.599.353-1.113 8.19-2.6-.353zm5.588-5.044 2.707.368-1.888 13.888-2.707-.368zm4.799.653 2.707.368-1.888 13.888-2.707-.368zM304.805 180.089l.366-2.689 9.864 1.341-.366 2.689-3.436-.467-1.329 9.775-3.009-.409 1.329-9.775zm10.289 8.743a.95.95 0 0 0 .086.574q.13.236.381.396.252.144.573.187a1.9 1.9 0 0 0 .881-.08q.419-.143.721-.5.303-.358.38-.928l.14 1.107q-.106.784-.609 1.278-.5.476-1.215.669a4 4 0 0 1-1.497.068 3.8 3.8 0 0 1-1.421-.483 2.63 2.63 0 0 1-.947-1.036q-.312-.641-.198-1.477.16-1.176 1.088-1.738.932-.582 2.463-.373.747.102 1.316.324.587.224.984.497.399.271.581.532l-.163 1.193a3 3 0 0 0-.931-.616 3.8 3.8 0 0 0-1.151-.338q-.482-.066-.78.002a.86.86 0 0 0-.471.263.84.84 0 0 0-.211.479m-.769-3.278-.663-1.922q.74-.243 1.76-.413a7.3 7.3 0 0 1 2.178-.012q1.087.147 1.897.584.814.418 1.233 1.074.418.655.302 1.51l-.784 5.769-2.582-.351.702-5.164a1.16 1.16 0 0 0-.037-.53.94.94 0 0 0-.231-.431 1.2 1.2 0 0 0-.467-.299 2.8 2.8 0 0 0-.649-.161 4.8 4.8 0 0 0-1.104-.023 5 5 0 0 0-.949.179 5 5 0 0 0-.606.19m14.302-.613 2.991.407-3.676 3.562 2.741 4.653-2.992-.407-1.385-2.618-1.998 2.158-3.098-.421 3.937-3.745-2.645-4.421 3.098.421 1.203 2.358z"/><path fill="#4B5563" d="m129.598 219.821-.034-.683 6.065-3.402.146 1.311-1.88 1.054c.478.184.898.398 1.23.799l1.733-.972.143 1.304-1.285.721q.04.128.068.26a3 3 0 0 1-.096 1.618 3 3 0 0 1-.221.514 3.3 3.3 0 0 1-.306.475 3.5 3.5 0 0 1-.601.609 3.5 3.5 0 0 1-.476.32q-.08.047-.164.087l.002.004 5.508 1.621-1.724 1.026-5.279-1.549-.03-.023-.649-1.158 1.514-.849a1.8 1.8 0 0 0 .37-.274 1.9 1.9 0 0 0 .288-.353 1.7 1.7 0 0 0 .223-.552 1.5 1.5 0 0 0 .033-.292 1.4 1.4 0 0 0-.02-.289 2 2 0 0 0-.073-.279l-.014.006-3.212 1.802-.025-1.371 2.646-1.484a1.5 1.5 0 0 0-.565-.405 1.7 1.7 0 0 0-.414-.114 1.75 1.75 0 0 0-.726.049 3 3 0 0 0-.278.102 2 2 0 0 0-.132.068l-1.732.971M105.535 276.992l.57-.377 6.022 3.476-1.052.795-1.867-1.078c.086.505.117.976-.058 1.466l1.721.994-1.049.788-1.275-.736a2.9 2.9 0 0 1-.618.521 3 3 0 0 1-.485.251 3.397 3.397 0 0 1-1.363.237 4 4 0 0 1-.283-.022 4 4 0 0 1-.559-.115 3.3 3.3 0 0 1-.536-.203 4 4 0 0 1-.412-.23l-.002.004 1.418 5.563-1.762-.959-1.365-5.329.005-.037.664-1.15 1.504.868a2 2 0 0 0 .278.131 1.78 1.78 0 0 0 1.185.024 1.5 1.5 0 0 0 .268-.12q.065-.035.123-.077a2 2 0 0 0 .222-.186q.05-.051.096-.107l-.012-.009-3.19-1.842 1.166-.721 2.627 1.517a1.3 1.3 0 0 0 .061-.271 1.7 1.7 0 0 0-.002-.422 1.64 1.64 0 0 0-.247-.672 2 2 0 0 0-.279-.341 1.754 1.754 0 0 0-.355-.266l-1.719-.993M71.273 224.645l.363-.723h8.285l-.613 1.435H76.74c.39.466.702.929.814 1.534h2.367l-.613 1.427h-1.754a3.5 3.5 0 0 1-.49 1.176 3.659 3.659 0 0 1-.635.744 4 4 0 0 1-.528.401 4 4 0 0 1-.596.312q-.156.066-.317.12a4.6 4.6 0 0 1-.662.161 4 4 0 0 1-.681.054q-.111.001-.221-.005v.005l4.778 4.855-2.39.06-4.583-4.647-.016-.041v-1.569h2.068a2.2 2.2 0 0 0 .544-.067 3 3 0 0 0 .344-.118 2.3 2.3 0 0 0 .315-.173 2 2 0 0 0 .604-.629 1.7 1.7 0 0 0 .148-.31 2 2 0 0 0 .086-.329l-.017-.002h-4.389l.774-1.427h3.615a2 2 0 0 0-.17-.464 1.7 1.7 0 0 0-.182-.28 2 2 0 0 0-.505-.454 2.1 2.1 0 0 0-.814-.306 2 2 0 0 0-.353-.028h-2.365M151.412 252.303l.276-.549h6.294l-.465 1.09h-1.951c.296.354.533.706.618 1.166h1.798l-.465 1.084h-1.333a2.7 2.7 0 0 1-.248.682 2.7 2.7 0 0 1-.428.601 2.996 2.996 0 0 1-.801.608 3 3 0 0 1-.975.323 3 3 0 0 1-.518.041q-.085.001-.168-.004v.004l3.63 3.689-1.815.046-3.482-3.531-.013-.031v-1.192h1.572a1.6 1.6 0 0 0 .413-.052 1.6 1.6 0 0 0 .501-.22 1.5 1.5 0 0 0 .211-.168 1.4 1.4 0 0 0 .175-.2 1.6 1.6 0 0 0 .135-.226 1.6 1.6 0 0 0 .089-.243q.017-.063.027-.127l-.014-.001h-3.334l.588-1.085h2.746a1.3 1.3 0 0 0-.129-.352 1.5 1.5 0 0 0-.314-.401q-.049-.043-.1-.083a1.6 1.6 0 0 0-.467-.243 1.4 1.4 0 0 0-.26-.064 2 2 0 0 0-.133-.015 2 2 0 0 0-.134-.006h-1.797"/><path fill="#4B5563" d="M87.027 239.954c2.795-2.158 4.22-5.721 4.761-9.12.548-3.436-.125-6.795-2.515-9.402q-.284-.307-.584-.59a1 1 0 0 0-.118-.109c-2.7-2.466-6.417-3.462-10.033-3.509a.38.38 0 0 0-.286.11c-5.094-1.005-10.667.24-13.804 4.688-1.75 2.481-1.922 5.332-1.86 8.275.063 2.926.522 5.877 2.764 7.967 1.14 1.064 2.501 1.779 3.954 2.243 2.617 1.224 5.53 1.873 8.395 1.982 3.246.123 6.704-.51 9.326-2.535m-7.89 1.826c-.008-.213-.044-.427-.07-.642a.4.4 0 0 0-.034-.122 17 17 0 0 0 2.11-.441c.028.192.08.38.128.572.034.141.058.277.102.4-.741.129-1.493.205-2.236.233m2.942-.372c-.029-.167-.11-.335-.161-.489-.06-.179-.112-.355-.188-.524q.528-.174 1.032-.39l.011-.005c.115.226.232.452.379.658.083.115.164.257.262.374q-.656.221-1.335.376m1.936-.593c-.073-.204-.251-.393-.37-.558a7 7 0 0 0-.386-.482q.515-.255 1.005-.559c.12.183.237.368.366.546.14.192.256.404.407.587a11 11 0 0 1-1.022.466m3.162-1.954a9.4 9.4 0 0 1-1.548 1.158c-.18-.432-.505-.822-.844-1.145q.64-.452 1.22-.984c.344.373.776.671 1.213.932q-.02.019-.04.039m.53-.54c-.397-.309-.804-.626-1.253-.863a12 12 0 0 0 1.007-1.147c.275.35.712.682 1.162.862q-.419.606-.916 1.148m1.353-1.827c-.168-.079-.343-.145-.504-.229-.257-.131-.489-.3-.748-.424q.433-.617.79-1.275c.11.101.247.169.395.262.237.146.48.285.706.451a13 13 0 0 1-.638 1.215zm.951-1.949a2.4 2.4 0 0 0-.508-.349 6 6 0 0 0-.596-.235q.264-.561.473-1.147c.16.057.324.107.488.166.211.076.41.154.618.188q-.207.699-.475 1.377m.698-2.201c-.193-.092-.415-.139-.616-.183a7 7 0 0 0-.473-.093c.208-.732.347-1.482.409-2.239a12 12 0 0 0 1.076.298 19 19 0 0 1-.396 2.217m.465-2.981c-.37-.08-.737-.142-1.112-.188q.013-.557-.03-1.114-.014-.128-.029-.252c.384.05.78.05 1.162.047q.055.741.01 1.507m-.1-2.31a4.5 4.5 0 0 0-1.17.035 11 11 0 0 0-.388-1.534c.37-.096.74-.209 1.104-.322.209.587.358 1.196.455 1.821m-1.498-3.909q.43.645.745 1.341a4.8 4.8 0 0 0-1.073.346 11.4 11.4 0 0 0-.696-1.414c.124-.071.247-.139.39-.181.21-.062.424-.049.634-.092m-1.605-1.639a.8.8 0 0 1 .177-.046q.512.483.939 1.016c-.307.07-.613.229-.848.429a12 12 0 0 0-.738-1.022c.115-.161.288-.302.47-.377m-.502-.635a1.36 1.36 0 0 0-.451.453 12.4 12.4 0 0 0-2.694-2.226c1.127.43 2.19 1.013 3.145 1.773m-19.895 17.888c-2.514-1.436-3.735-3.793-4.007-6.621-.252-2.634-.432-5.741.755-8.179 1.161-2.387 3.305-4.139 5.745-5.111 2.719-1.084 5.7-1.125 8.559-.648.077.09.19.153.338.161 4.579.241 8.69 3.741 9.816 8.16 1.136 4.459-1.133 9.336-4.939 11.782-2.376 1.528-5.188 1.837-7.953 1.951-2.83.115-5.8-.057-8.314-1.495m5.97 2.459a35 35 0 0 0 2.755.033q.004.22.023.439a22 22 0 0 1-2.777-.472m3.496.435a7 7 0 0 1-.091-.429 24 24 0 0 0 1.503-.129q-.005.02-.009.046c-.025.217-.063.435-.07.653q-.657.001-1.306-.043zm6.418-20.045c.563.147.978.467 1.344.912.34.412.868.963.732 1.526-.078.327-.565.392-.725.095-.403-.751-.796-1.564-1.58-1.992-.301-.164-.09-.623.229-.541m2.07 3.437a.5.5 0 0 1 .268-.08.6.6 0 0 1 .292.08.5.5 0 0 1 .188.183l.05.118.004.015a.5.5 0 0 1-.048.369.36.36 0 0 1-.123.134.35.35 0 0 1-.162.085l-.018.007-.13.019-.133-.019q-.061-.025-.123-.052-.013-.007-.025-.016c-.035-.024-.078-.052-.11-.082a.2.2 0 0 1-.045-.057.3.3 0 0 1-.063-.109.5.5 0 0 1-.043-.193v-.025a.42.42 0 0 1 .17-.336 1 1 0 0 1 .053-.041zm-19.272 2.627a6 6 0 0 0-.28.782.4.4 0 0 1-.537.257c-.23-.098-.294-.351-.19-.564q.202-.413.455-.798c.23-.35.715-.047.552.323m-.984-.972c-.161-.067-.283-.268-.218-.443.09-.249.284-.469.48-.644a.3.3 0 0 1 .388-.024.3.3 0 0 1 .077.384 2 2 0 0 0-.148.275 1 1 0 0 1-.034.099 2 2 0 0 1-.077.199c-.08.169-.31.221-.468.154m98.717 22.957a.6.6 0 0 0-.087-.082c-2.023-1.848-4.808-2.594-7.519-2.629a.29.29 0 0 0-.215.082c-3.815-.754-7.991.18-10.342 3.513-1.311 1.859-1.44 3.995-1.395 6.2.048 2.193.392 4.404 2.071 5.971.855.797 1.874 1.333 2.963 1.68 1.961.917 4.144 1.403 6.291 1.485 2.434.092 5.023-.382 6.989-1.9 2.094-1.617 3.161-4.286 3.568-6.834.411-2.574-.094-5.091-1.885-7.044a8 8 0 0 0-.439-.442m-.537.497a.6.6 0 0 1 .133-.036q.385.363.702.762a1.5 1.5 0 0 0-.634.322 9 9 0 0 0-.553-.767.87.87 0 0 1 .352-.283zm-.375-.477a1 1 0 0 0-.339.34 9.3 9.3 0 0 0-2.019-1.668 8.9 8.9 0 0 1 2.358 1.328m-10.435 15.247c.672.033 1.365.046 2.064.025q.002.163.017.328a16 16 0 0 1-2.081-.353m3.672-.058c-.021.162-.049.326-.053.489q-.492 0-.979-.032l-.021-.074a4 4 0 0 1-.068-.32q.565-.032 1.127-.098-.005.016-.006.035m-1.916-.665c-2.121.087-4.348-.042-6.23-1.119-1.884-1.076-2.799-2.843-3.001-4.962-.19-1.973-.325-4.302.565-6.129.869-1.788 2.475-3.101 4.304-3.83 2.037-.813 4.272-.843 6.415-.486.057.068.14.115.252.122 3.431.179 6.513 2.802 7.355 6.114.852 3.341-.847 6.995-3.7 8.829-1.782 1.144-3.888 1.376-5.959 1.461zm2.435 1.146c-.005-.161-.033-.322-.052-.481a.3.3 0 0 0-.027-.093 13 13 0 0 0 1.581-.33c.022.143.061.285.096.429.027.106.044.207.078.298q-.839.144-1.676.175zm2.204-.281c-.022-.125-.082-.249-.12-.364-.046-.136-.085-.269-.142-.395a9 9 0 0 0 .783-.295c.085.169.172.339.282.492.063.089.123.194.198.281a10 10 0 0 1-1.001.281m1.45-.445c-.053-.151-.187-.293-.276-.417a5 5 0 0 0-.29-.361q.388-.19.753-.42.132.208.274.411c.104.145.193.303.306.44a8 8 0 0 1-.767.347m2.37-1.463a7 7 0 0 1-1.159.868c-.136-.323-.379-.615-.635-.858q.483-.338.916-.737c.257.279.582.502.908.697q-.015.016-.03.03m.398-.404c-.298-.232-.604-.47-.939-.647q.403-.406.754-.86c.206.264.532.512.87.646q-.314.455-.685.861m1.013-1.369c-.124-.059-.255-.109-.377-.171-.192-.099-.368-.225-.562-.319q.324-.46.594-.956c.082.076.184.128.295.197.178.111.359.215.528.338a10 10 0 0 1-.478.911m.713-1.46a1.8 1.8 0 0 0-.381-.262 4 4 0 0 0-.447-.177q.2-.42.355-.858c.12.042.243.08.366.123.158.057.306.117.462.14q-.153.526-.355 1.034m.523-1.651a2 2 0 0 0-.461-.135c-.12-.027-.237-.054-.355-.071.156-.548.26-1.11.306-1.678.262.087.524.16.797.223h.009a14 14 0 0 1-.296 1.661m.348-2.232a9 9 0 0 0-.833-.141q.011-.417-.023-.835c-.005-.064-.015-.126-.021-.189.287.038.584.038.87.035q.043.556.007 1.13m-.075-1.732a3.3 3.3 0 0 0-.876.027 8 8 0 0 0-.29-1.15q.416-.111.826-.242.234.662.34 1.365m-.565-1.923c-.275.054-.548.14-.803.259a9 9 0 0 0-.521-1.061c.091-.053.186-.104.292-.134.158-.047.317-.038.475-.069q.322.484.557 1.005m-4.13-.26c-.301-.562-.596-1.171-1.183-1.492-.226-.123-.068-.467.172-.405.423.11.733.35 1.006.683.255.308.652.721.55 1.143-.06.246-.425.295-.545.071m.54.678a.4.4 0 0 1 .2-.061.5.5 0 0 1 .22.061.4.4 0 0 1 .14.137l.038.089q.002.006.003.011a.38.38 0 0 1-.036.276.3.3 0 0 1-.093.101.3.3 0 0 1-.122.063l-.012.005-.098.014-.1-.014-.093-.038-.017-.013c-.027-.019-.059-.039-.082-.061a.2.2 0 0 1-.035-.043.2.2 0 0 1-.047-.08.4.4 0 0 1-.032-.146v-.018q0-.088.043-.163a.24.24 0 0 1 .083-.09zm-14.442 1.968a5 5 0 0 0-.21.585.3.3 0 0 1-.402.194c-.172-.074-.219-.263-.142-.423q.151-.309.341-.598c.173-.262.536-.036.413.242m-.737-.728c-.121-.05-.211-.2-.164-.333.068-.186.213-.35.36-.481a.225.225 0 0 1 .292-.017.22.22 0 0 1 .057.285 1.5 1.5 0 0 0-.111.207l-.025.074a1 1 0 0 1-.057.15c-.061.126-.232.166-.352.115m23.795-25.901-.079-.146c-.368-.696-.745-1.402-1.121-2.098a307 307 0 0 0-2.285-4.17 308 308 0 0 0-9.81-16.397c-.191-.3-.38-.608-.563-.906-.431-.702-.876-1.43-1.394-2.094q-.1-.132-.208-.287c-.279-.395-.595-.843-1.056-.986-.29-.092-.651-.057-.972-.024-.119.011-.235.022-.34.027-2.612.109-4.905.333-7.011.686a61 61 0 0 0-6.882 1.592c-4.494 1.31-9.16 3.111-15.131 5.839a335 335 0 0 0-7.319 3.475c-2.739 1.333-5.574 2.711-8.144 4.524-1.378.972-2.517 1.941-3.487 2.963q-.11.115-.232.242c-.813.834-1.924 1.977-1.353 3.168.226.471.625.841 1.012 1.201.147.134.284.262.412.395.475.489.956 1.029 1.518 1.698a42 42 0 0 1 2.75 3.683c1.504 2.255 2.934 4.794 4.502 7.989.59 1.199 1.215 2.526 1.969 4.177.337.732.668 1.467.954 2.099q.102.23.205.482c.221.542.451 1.1.838 1.52.405.437.943.586 1.507.586.711 0 1.467-.236 2.056-.419l.06-.019c1.158-.361 2.351-.88 3.867-1.683.848-.45 1.705-.916 2.533-1.365 1.606-.87 3.265-1.769 4.928-2.599 5.599-2.795 10.729-4.876 15.685-6.364a67.3 67.3 0 0 1 16.872-2.776c.496-.019 1.002-.031 1.491-.044 1.028-.027 2.091-.054 3.134-.129.491-.035 1.185-.154 1.564-.763.249-.404.311-.935.177-1.538-.123-.554-.39-1.054-.649-1.539zm-.603 2.528c-.158.13-.421.137-.655.145l-.131.005c-.349.019-.732.036-1.206.055l-1.404.056c-2.378.09-4.836.184-7.248.463a65 65 0 0 0-8.011 1.47c-4.919 1.218-9.921 2.995-15.292 5.429a133 133 0 0 0-7.297 3.595c-.694.368-1.395.761-2.072 1.141-1.661.933-3.378 1.898-5.174 2.577-.69.262-1.379.461-2.051.592-.707.138-1.179.105-1.49-.48-.447-.836-.833-1.733-1.209-2.599-.199-.459-.404-.934-.615-1.395-1.1-2.391-2.432-5.204-3.977-7.955-1.594-2.837-3.208-5.239-4.936-7.34a36 36 0 0 0-1.448-1.662 14 14 0 0 0-.518-.522c-.319-.313-.65-.635-.904-.987-.339-.473.072-.942.435-1.357q.072-.08.136-.157c.456-.54.969-1.077 1.521-1.593 2.32-2.165 5.105-3.725 7.524-4.967 2.075-1.065 4.218-2.088 6.29-3.079l1.09-.521c4.218-2.021 9.235-4.328 14.453-6.125 5.305-1.828 10.238-2.929 15.078-3.366a44 44 0 0 1 1.972-.136 4 4 0 0 1 .278-.012c.242 0 .464.042.604.238.171.238.329.521.482.795.118.213.241.434.371.634a541 541 0 0 1 2.045 3.197 439 439 0 0 1 4.014 6.442 334 334 0 0 1 7.205 12.37c.385.694.77 1.395 1.144 2.083.09.164.185.329.276.49.243.426.493.865.674 1.315.24.598.256.989.046 1.161m-4.376-6.801q-.082-.134-.162-.268-.105-.173-.207-.346l-3.066-5.215q-.88-1.496-1.758-2.992l-.72-1.223q-1.028-1.753-2.062-3.505l-.213-.362c-.377-.638-.767-1.298-1.158-1.941a26 26 0 0 1-.381-.657c-.191-.334-.388-.682-.606-1.01l-.037-.055c-.22-.335-.494-.75-.982-.751q-.16 0-.319.003c-.419.005-.817.008-1.238-.069a6.55 6.55 0 0 1-2.939-1.398c-.184-.154-.475-.038-.707.053-.064.025-.124.049-.168.062-1.054.288-2.148.527-3.205.757-.669.145-1.36.295-2.036.458-1.988.476-3.748.924-5.382 1.366a126 126 0 0 0-5.28 1.545c-2.839.904-5.389 1.842-7.796 2.869-2.449 1.045-4.863 2.261-7.198 3.437l-9.658 4.858a.43.43 0 0 0-.216.256.45.45 0 0 0 .025.35 4.73 4.73 0 0 1 .024 4.261c-.164.325.101.585.294.775q.065.062.113.116c.287.324.511.737.728 1.138.109.201.221.407.337.598.426.69.867 1.387 1.293 2.06q.356.563.71 1.126a86 86 0 0 1 1.505 2.471 131 131 0 0 1 4.182 7.77.46.46 0 0 0 .405.251 6.64 6.64 0 0 1 4.168 1.231c.158.115.309.242.456.366.268.226.546.459.882.627.12.058.264.121.418.134l.052.003c.191 0 .325-.095.455-.186l.025-.019q.279-.197.56-.388a72 72 0 0 1 8.165-4.889 66 66 0 0 1 4.94-2.277l.278-.114c4.601-1.868 9.646-3.261 15.876-4.385 3.063-.552 6.183-1.01 9.198-1.453.25-.036.368-.291.34-.516-.09-.69.011-1.4.293-2.053.365-.841 1.054-1.592 1.897-2.063a.4.4 0 0 0 .156-.132c.098-.166-.071-.39-.207-.571-.031-.041-.061-.079-.074-.103m-1.073.483-.013.008a4 4 0 0 0-.509.432c-.377.377-.696.865-.949 1.446a5.2 5.2 0 0 0-.415 1.764l-.003.055a2 2 0 0 0-.006.243q.003.046.011.088c.006.043.013.084.005.112q-.014.038-.246.049a1 1 0 0 0-.109.008l-.68.101-1.361.202a344 344 0 0 0-2.717.42 158 158 0 0 0-5.419.948 95 95 0 0 0-5.371 1.195l-.213.055a68.3 68.3 0 0 0-15.24 5.924 65 65 0 0 0-4.793 2.84c-.498.327-.999.665-1.485 1.002q-.366.257-.73.519a4 4 0 0 0-.179.139 2 2 0 0 1-.238.179c-.232.146-.576-.204-.825-.46-.089-.09-.164-.167-.232-.222a7.516 7.516 0 0 0-4.42-1.673h-.01q-.03 0-.096.002a4 4 0 0 1-.265.005 130 130 0 0 0-4.141-7.598l-.123-.209c-1.215-2.061-2.471-4.191-3.913-6.152-.065-.087-.153-.185-.246-.289-.303-.336-.68-.754-.504-1.064.371-.648.449-1.549.449-2.19 0-.729-.147-1.467-.423-2.141l7.612-3.824q.694-.348 1.388-.699c2.074-1.048 4.22-2.13 6.371-3.105 4.372-1.984 9.386-3.699 15.778-5.402a555 555 0 0 1 9.126-2.318l.033-.011c.072.062.203.163.445.346.184.139.513.385.576.423a6.3 6.3 0 0 0 1.27.577c.757.25 1.824.496 2.667.283l.319.55.233.401q.179.31.358.625l.352.614q.29.5.579 1.002l.761 1.316q.986 1.72 1.971 3.442l.707 1.238a274 274 0 0 0 1.893 3.317l.949 1.651 1.669 2.921c.057.098.122.195.183.288.09.138.183.278.253.423q.051.106-.084.204m-19.572-7.126c-.451-1.201-1.32-2.276-2.512-3.106-1.459-1.018-3.419-1.575-5.67-1.611-2.18-.036-4.292.361-6.103 1.15-2.089.909-3.649 2.266-4.633 4.032-.881 1.575-1.204 3.541-.99 6.012.097 1.119.337 2.06.731 2.874.497 1.027 1.332 1.914 2.081 2.646.772.756 1.676 1.222 2.929 1.512l.036.008c1.025.236 2.085.481 3.153.549q.273.016.54.016c1.879 0 3.688-.616 5.382-1.835 1.982-1.425 3.611-3.297 4.588-5.268 1.144-2.312 1.343-4.668.572-6.814a.4.4 0 0 0-.104-.165m-4.252 10.402c-1.646 1.453-3.316 2.318-4.965 2.572-.973.151-1.956.055-2.872-.069-1.008-.138-1.988-.289-2.875-.614-1.036-.379-1.805-1.261-2.483-2.041-.666-.765-1.104-1.586-1.337-2.507-.199-.784-.284-1.651-.271-2.724.011-.937.061-1.931.353-2.862 1.218-3.877 5.365-5.635 8.84-5.987a15 15 0 0 1 1.507-.079c1.745 0 3.271.339 4.551 1.015 1.349.71 2.428 1.838 3.041 3.179a.4.4 0 0 0 .02.098c1.299 3.955-.961 7.767-3.509 10.017zm19.41-2.574a.53.53 0 0 1-.533.45c-.409.005-.727.145-1.101.327a.7.7 0 0 1-.297.072.66.66 0 0 1-.578-.375c-.137-.272-.112-.655.269-.853.629-.328 1.357-.298 1.857-.216.27.046.42.351.383.595m-.006 1.169a.48.48 0 0 1-.072.373.44.44 0 0 1-.288.194q-.103.02-.213.044c-.18.04-.363.079-.542.079q-.078 0-.155-.011c-.224-.033-.377-.164-.421-.357a.465.465 0 0 1 .238-.513c.222-.104.468-.126.708-.148l.19-.017c.276-.032.498.11.555.356m-43.379-6.121c-.213.065-.397.182-.591.305-.179.112-.362.229-.567.303a.5.5 0 0 1-.156.027.46.46 0 0 1-.358-.182c-.152-.186-.179-.446-.067-.629.325-.531 1.067-.693 1.63-.734.224-.017.396.112.437.328.043.224-.069.502-.328.582m1.602.802a.36.36 0 0 1-.204.316q-.072.038-.148.08c-.224.123-.454.251-.724.254h-.003a.28.28 0 0 1-.247-.15.29.29 0 0 1 .004-.3c.143-.225.385-.361.599-.481q.078-.044.153-.088a.35.35 0 0 1 .362-.008.43.43 0 0 1 .208.377m19.368 44.318c-1.033.154-2.076.36-3.085.558-.481.095-.977.193-1.466.284a67.2 67.2 0 0 1-17.069.984c-5.163-.367-10.624-1.275-16.7-2.776-1.803-.447-3.62-.961-5.378-1.458-.907-.257-1.844-.523-2.77-.777-1.656-.451-2.934-.697-4.143-.795l-.063-.006c-.614-.049-1.403-.114-2.097.042-.55.124-1.043.385-1.341.901-.287.494-.388 1.089-.486 1.665q-.044.27-.093.516c-.14.679-.305 1.469-.47 2.257a167 167 0 0 1-1.007 4.506c-.829 3.461-1.67 6.251-2.642 8.78a42 42 0 0 1-1.876 4.198c-.4.775-.753 1.406-1.11 1.988-.094.156-.201.311-.313.475-.3.436-.608.884-.726 1.393-.295 1.287 1.04 2.159 2.015 2.797q.148.094.28.184c1.17.785 2.495 1.48 4.051 2.127 2.907 1.206 5.973 1.932 8.94 2.633a334 334 0 0 0 7.9 1.787c6.425 1.356 11.373 2.091 16.046 2.386 2.434.153 4.811.169 7.063.046 2.132-.115 4.418-.398 6.99-.865.104-.019.218-.031.339-.047.319-.038.681-.082.944-.235.418-.243.627-.748.813-1.193q.07-.176.14-.328c.36-.761.635-1.567.901-2.347.112-.331.229-.674.351-1.007a310 310 0 0 0 7.293-22.715c.215-.762.426-1.532.634-2.293l.045-.159c.145-.53.295-1.076.293-1.643-.002-.618-.177-1.123-.51-1.462-.501-.512-1.205-.474-1.691-.401zm.977 2.315c-.077.478-.226.961-.369 1.428-.054.178-.111.361-.161.541a334.628 334.628 0 0 1-4.979 15.93 422 422 0 0 1-2.506 7.162c-.413 1.151-.849 2.35-1.294 3.567-.083.224-.154.465-.222.7-.09.302-.182.612-.297.882-.093.221-.301.311-.536.365q-.135.028-.275.049l-.129.02a44 44 0 0 1-1.826.278c-4.818.633-9.87.639-15.448.017-5.486-.612-10.887-1.765-15.446-2.813l-1.177-.27c-2.24-.513-4.554-1.043-6.812-1.629-2.632-.681-5.692-1.595-8.43-3.2a19 19 0 0 1-1.832-1.219 5 5 0 0 0-.169-.125c-.445-.325-.95-.693-.72-1.228.17-.399.422-.787.665-1.161.133-.204.27-.415.391-.624.362-.623.715-1.275 1.05-1.937 1.223-2.43 2.272-5.126 3.205-8.242.905-3.022 1.587-6.06 2.136-8.633.106-.496.202-1.004.295-1.496.177-.927.359-1.886.61-2.8.176-.639.627-.774 1.349-.795.684-.017 1.4.025 2.13.13 1.901.269 3.789.834 5.614 1.38.745.224 1.514.455 2.273.661 2.778.758 5.365 1.383 7.907 1.91 5.775 1.201 11.044 1.838 16.11 1.952a65 65 0 0 0 8.139-.322c2.414-.254 4.833-.701 7.175-1.133l1.381-.253a95 95 0 0 1 1.317-.235c.229-.044.49-.093.671-.001.243.121.314.506.21 1.144m-3.044 5.635c-.925-.275-1.764-.857-2.302-1.597a3.9 3.9 0 0 1-.737-1.94c-.021-.225-.193-.448-.445-.429-3.039.229-6.183.464-9.293.595-6.325.268-11.552.013-16.451-.803l-.296-.049a67 67 0 0 1-5.321-1.142 71 71 0 0 1-5.21-1.559 82 82 0 0 1-2.56-.925 98 98 0 0 1-1.898-.754l-.03-.013c-.146-.062-.297-.125-.483-.082l-.05.014a1.2 1.2 0 0 0-.38.223c-.29.236-.51.525-.722.804-.117.152-.237.31-.366.456a6.64 6.64 0 0 1-3.795 2.115.45.45 0 0 0-.343.333c-.699 2.872-1.499 5.731-2.375 8.496a89 89 0 0 1-.928 2.741q-.222.627-.446 1.254c-.268.75-.546 1.526-.81 2.293-.072.211-.135.439-.199.658-.122.437-.25.89-.459 1.269q-.036.063-.085.139c-.147.227-.347.538-.117.82a4.73 4.73 0 0 1 .91 4.161.46.46 0 0 0 .053.349c.06.101.155.174.267.2l10.489 2.628c2.535.636 5.158 1.294 7.774 1.778 2.574.475 5.268.832 8.237 1.092 1.736.152 3.532.267 5.49.352 1.692.074 3.508.125 5.552.155a91 91 0 0 0 2.086.001c1.082-.006 2.201-.012 3.291.038.048.002.111.013.179.024.247.038.557.087.703-.103a6.5 6.5 0 0 1 2.56-2.007c.393-.169.783-.251 1.194-.339q.155-.032.311-.068c.475-.107.652-.573.794-.947l.024-.061c.142-.368.257-.75.369-1.119.073-.239.147-.485.229-.723.24-.715.475-1.444.704-2.148l.129-.4q.625-1.935 1.243-3.871l.434-1.351 1.059-3.304 1.848-5.76q.062-.192.128-.382l.098-.298c.009-.025.028-.069.05-.117.093-.207.208-.462.077-.603a.4.4 0 0 0-.181-.094m-.97.759c-.037.156-.097.314-.155.467-.04.106-.081.214-.114.322l-.991 3.216q-.28.909-.563 1.818c-.372 1.194-.757 2.43-1.119 3.651l-.42 1.362q-.581 1.895-1.167 3.79-.225.725-.455 1.45l-.345 1.105-.209.677-.213.688q-.069.22-.139.442-.097.303-.19.607c-.87-.023-1.856.45-2.541.859a6.4 6.4 0 0 0-1.112.841c-.054.052-.321.363-.469.539-.196.232-.303.359-.36.434l-.035-.003c-2.913-.065-6.215-.137-9.411-.265-6.61-.26-11.879-.838-16.58-1.816-2.311-.48-4.642-1.067-6.895-1.635q-.755-.19-1.51-.379l-8.265-2.065a5.7 5.7 0 0 0-.056-2.181c-.14-.627-.414-1.488-.917-2.04-.24-.262.036-.753.257-1.146.07-.123.134-.238.177-.338.978-2.228 1.737-4.582 2.47-6.858l.075-.232c.87-2.698 1.668-5.497 2.375-8.319.066-.017.197-.041.259-.053l.094-.019.01-.002a7.698 7.698 0 0 0 1.26-.462 7.5 7.5 0 0 0 1.9-1.29c.283-.26.547-.547.786-.848.054-.07.11-.161.177-.269.188-.303.447-.719.706-.628.09.032.176.076.27.122q.1.051.204.098.414.175.829.345c.547.224 1.11.444 1.668.653a65 65 0 0 0 5.297 1.724 68.5 68.5 0 0 0 16.168 2.444l.221.006c1.73.049 3.53.046 5.503-.009a163 163 0 0 0 5.494-.262c.822-.052 1.72-.112 2.744-.186q.688-.05 1.372-.1l.686-.05q.047-.006.107-.016.231-.04.251-.006a.3.3 0 0 1 .021.11 1 1 0 0 0 .008.088q.023.122.058.236l.016.053q.086.302.205.589c.156.371.353.722.587 1.043.374.511.792.915 1.242 1.202q.285.18.593.31l.013.006q.153.063.128.18m-25.28.213c-1.92-.819-3.82-1.024-5.654-.612a8 8 0 0 0-.522.134c-1.029.298-2.009.77-2.957 1.226l-.033.016c-1.16.557-1.94 1.208-2.528 2.114-.57.879-1.189 1.928-1.45 3.039-.206.881-.234 1.85-.082 2.962.332 2.459 1.079 4.306 2.283 5.651 1.347 1.507 3.167 2.49 5.403 2.919 1.942.374 4.088.3 6.209-.213 2.187-.528 3.977-1.501 5.178-2.812.981-1.073 1.593-2.31 1.772-3.58a.5.5 0 0 0 .064-.187c.28-2.261-.429-4.516-2.053-6.521-1.385-1.711-3.384-3.18-5.63-4.136m6.809 10.732c-.303 1.442-1.108 2.78-2.269 3.768-1.1.937-2.515 1.603-4.22 1.985q-.71.16-1.486.252c-3.467.419-7.9-.389-9.937-3.905-.489-.844-.757-1.804-.973-2.716-.248-1.044-.354-1.908-.332-2.717.026-.95.273-1.846.755-2.739.49-.909 1.047-1.938 1.975-2.535.796-.511 1.717-.872 2.67-1.227.868-.322 1.806-.63 2.789-.698 1.663-.112 3.484.368 5.407 1.425 2.98 1.638 6.02 4.865 5.62 9.007a.4.4 0 0 0 .001.1m13.883-10.846c.089.232.01.562-.244.664-.469.191-1.173.381-1.859.198-.414-.111-.522-.478-.448-.773a.66.66 0 0 1 .481-.494.66.66 0 0 1 .305.006c.405.096.748.162 1.145.079a.53.53 0 0 1 .62.32m-1.983-1.082c0-.198.121-.359.333-.441a1 1 0 0 1 .148-.044c.175-.039.363-.041.546-.042q.112.001.218-.004a.44.44 0 0 1 .323.127.48.48 0 0 1 .153.347c-.001.252-.187.44-.464.47q-.094.01-.189.024c-.238.031-.483.064-.724.011a.466.466 0 0 1-.344-.448m-38.816 15.906a.39.39 0 0 1-.353.416c-.56.084-1.32.089-1.752-.358-.151-.154-.181-.413-.074-.629a.46.46 0 0 1 .311-.256.4.4 0 0 1 .156-.006c.218.026.423.099.62.17.217.077.422.15.644.167.272.022.44.27.448.496m.94-1.629a.43.43 0 0 1-.12.414.35.35 0 0 1-.356.071l-.169-.052c-.235-.07-.5-.15-.69-.338a.29.29 0 0 1-.069-.292.28.28 0 0 1 .209-.2l.003-.002c.264-.055.516.019.762.09q.081.025.163.046a.36.36 0 0 1 .266.263M61.42 249.602c-1.56-.598-2.444-2.494-2.162-4.079.071-.399.627-.259.658.089.052.61.275 1.229.616 1.735.36.534.823.827 1.343 1.178.522.351.202 1.328-.455 1.077m-.464 5.571c.013.184-.147.386-.325.426-.778.173-1.358-.501-1.8-1.048a8.1 8.1 0 0 1-1.084-1.704c-.573-1.253-.837-2.599-.721-3.977.037-.467.702-.473.73 0a7.6 7.6 0 0 0 1.07 3.41c.308.518.661.993 1.084 1.422.439.445.997.797 1.046 1.471m122.31-12.192c.006.301.032.917-.424.925-.455.006-.43-.631-.423-.925.012-.499.063-.996.112-1.493a.312.312 0 0 1 .623 0c.049.497.1.994.112 1.493m4.322 1.008c-.123.95-.32 1.888-.614 2.8-.146.457-.318.904-.506 1.344-.194.459-.377.961-.715 1.332-.54.592-1.488-.033-1.3-.756.117-.448.407-.863.599-1.283q.262-.57.466-1.164a15.1 15.1 0 0 0 .83-5.058c0-.443-.006-.888-.035-1.33-.014-.219-.039-.44-.042-.66-.005-.232.039-.41.085-.631.066-.323.486-.311.647-.085.148.211.251.377.331.631.073.231.114.47.158.707.084.453.148.909.181 1.368.068.933.037 1.859-.085 2.785m-32.39 40.032c.116.703.185 1.417.147 2.129-.031.6-.115 1.463-.751 1.747-.289.129-.617.126-.854-.111-.209-.209-.282-.596-.11-.852.106-.153.192-.227.237-.405.069-.275.056-.6.074-.884.035-.588.039-1.182 0-1.77-.081-1.174-.44-2.292-.723-3.428-.09-.366.372-.519.576-.243.805 1.094 1.188 2.492 1.404 3.817m-3.498-3.108c.123.642.26 1.968-.492 2.297q-.253.108-.417-.109c-.213-.282-.175-.673-.154-1.005a7 7 0 0 0-.016-1.038c-.065-.716-.365-1.322-.631-1.979-.152-.372.38-.598.631-.366.587.544.931 1.425 1.079 2.2"/></g><defs><radialGradient id="b" cx="0" cy="0" r="1" gradientTransform="matrix(0 195 -225 0 203 174)" gradientUnits="userSpaceOnUse"><stop stop-color="#707174"/><stop offset="1" stop-color="#707174" stop-opacity="0"/></radialGradient><linearGradient id="l" x1="112" x2="293" y1="81.5" y2="81.5" gradientUnits="userSpaceOnUse"><stop stop-color="#9CA3AF" stop-opacity=".4"/><stop offset=".505" stop-color="#9CA3AF"/><stop offset="1" stop-color="#9CA3AF" stop-opacity=".4"/></linearGradient><clipPath id="a"><path fill="#fff" d="M0 0h404.833v347H0z"/></clipPath><filter id="k" width="364.4" height="364.4" x="54.8" y="9.8" color-interpolation-filters="sRGB" filterUnits="userSpaceOnUse"><feFlood flood-opacity="0" result="BackgroundImageFix"/><feBlend in="SourceGraphic" in2="BackgroundImageFix" result="shape"/><feGaussianBlur result="effect1_foregroundBlur_25329_6114" stdDeviation="74.1"/></filter></defs></svg>