<svg width="335" height="261" viewBox="0 0 335 261" fill="none" xmlns="http://www.w3.org/2000/svg">
<path d="M150.786 56.3273L11.2926 152.564M175.367 72.2751L35.8732 168.511M199.947 88.2228L60.4538 184.459M224.528 104.171L85.0343 200.407M249.108 120.118L109.615 216.355M273.689 136.066L134.195 232.302M298.269 152.014L158.776 248.25M322.85 167.961L183.357 264.198M323.714 182.484L129.063 56.1952M299.596 199.123L104.945 72.8342M275.478 215.762L80.8268 89.4732M251.36 232.401L56.7088 106.112M227.242 249.04L32.5907 122.751M203.124 265.679L8.47274 139.39" stroke="url(#paint0_radial_19657_21116)"/>
<path opacity="0.15" d="M116.182 141.143L220.915 142.996L264.949 38.3594H71.6406L116.182 141.143Z" fill="url(#paint1_linear_19657_21116)"/>
<path opacity="0.2" d="M90.4531 29.875L127.809 142.998H211.592L248.674 29.875H90.4531Z" fill="url(#paint2_linear_19657_21116)"/>
<path opacity="0.25" d="M114.492 21.3945H222.215L204.572 144.208L136.514 142.994L114.492 21.3945Z" fill="url(#paint3_linear_19657_21116)"/>
<path d="M168.406 210.077L124.056 183.348L123.25 131.637L168.406 157.734V210.077Z" fill="#437CDE" stroke="#8BB9F8" stroke-width="0.484353" stroke-miterlimit="10"/>
<path d="M212.873 182.924L168.406 210.076V157.733L212.873 132.043V182.924Z" fill="#437CDE" stroke="#8BB9F8" stroke-width="0.484353" stroke-miterlimit="10"/>
<path d="M124.338 173.507L150.92 190.129L168.057 157.508L123.25 130.488L124.338 173.507Z" fill="#2861CC"/>
<path d="M105.898 153.801L149.401 181.003L168.059 157.508L123.251 130.488L105.898 153.801Z" fill="#4A91F2" stroke="#8BB9F8" stroke-width="0.484353" stroke-miterlimit="10"/>
<path d="M188.722 190.544L212.811 177.246L212.878 130.887L168.062 157.507L188.722 190.544Z" fill="#3453C7"/>
<path d="M186.338 181.003L230.364 154.706L212.878 130.887L168.062 157.507L186.338 181.003Z" fill="#4A91F2" stroke="#8BB9F8" stroke-width="0.484353" stroke-miterlimit="10"/>
<path d="M123.25 130.488L168.057 107.051V157.508L123.25 130.488Z" fill="#2A59BE"/>
<path d="M212.878 130.887L168.062 107.051V157.508L212.878 130.887Z" fill="#4075DA"/>
<path d="M114.166 80.8041L112.67 85.9653L111.466 80.7293L106 79.2915L111.532 78.1612L113.028 73L114.24 78.236L119.698 79.6738L114.166 80.8041Z" fill="white"/>
<path d="M87.0911 34.4802L86.925 37.7714L85.4713 34.8126L82.0156 34.7295L85.1556 33.2834L85.3301 29.9922L86.7754 32.9509L90.2311 33.034L87.0911 34.4802Z" fill="white"/>
<path d="M155.3 140.32L153.356 142.124L154.17 139.606L152.227 137.619L154.852 138.542L156.787 136.738L155.973 139.257L157.925 141.243L155.3 140.32Z" fill="white"/>
<path d="M209.648 24.2951L207.38 27.4866L207.812 23.5886L204.406 21.2865L208.477 21.8516L210.753 18.6602L210.321 22.5581L213.727 24.8602L209.648 24.2951Z" fill="white"/>
<path d="M227.492 72.9867C228.868 72.9867 229.984 71.8704 229.984 70.4933C229.984 69.1163 228.868 68 227.492 68C226.116 68 225 69.1163 225 70.4933C225 71.8704 226.116 72.9867 227.492 72.9867Z" fill="white"/>
<path d="M259.742 118.655C261.118 118.655 262.234 117.538 262.234 116.161C262.234 114.784 261.118 113.668 259.742 113.668C258.366 113.668 257.25 114.784 257.25 116.161C257.25 117.538 258.366 118.655 259.742 118.655Z" fill="white"/>
<g clip-path="url(#clip0_19657_21116)">
<path d="M243.086 200.547L241.752 200.546L241.117 195.363L243.086 195.363L243.086 200.547Z" fill="#FFB7B7"/>
<path d="M243.419 201.847L239.117 201.847V201.792C239.117 201.345 239.294 200.916 239.608 200.599C239.922 200.283 240.348 200.105 240.792 200.105H240.792L243.419 200.106L243.419 201.847Z" fill="#2F2E41"/>
<path d="M255.535 199.719L254.231 200.007L252.508 195.082L254.431 194.656L255.535 199.719Z" fill="#FFB7B7"/>
<path d="M256.143 200.92L251.941 201.849L251.93 201.795C251.834 201.358 251.915 200.901 252.155 200.524C252.394 200.148 252.772 199.882 253.206 199.786L253.206 199.786L255.773 199.219L256.143 200.92Z" fill="#2F2E41"/>
<path d="M239.336 182.336L232.746 183.767C231.482 181.368 231.198 178.861 231.188 176.49L237.778 175.059C237.676 177.578 238.212 180.082 239.336 182.336Z" fill="#4A91F2"/>
<path d="M232.689 177.82L232.633 177.568L236.058 176.871L236.114 177.123L232.689 177.82Z" fill="white"/>
<path d="M232.916 178.832L232.859 178.58L236.284 177.883L236.34 178.135L232.916 178.832Z" fill="white"/>
<path d="M233.142 179.836L233.086 179.584L236.511 178.887L236.567 179.139L233.142 179.836Z" fill="white"/>
<path d="M233.361 180.844L233.305 180.591L236.73 179.895L236.786 180.147L233.361 180.844Z" fill="white"/>
<path d="M233.587 181.855L233.531 181.603L236.956 180.906L237.012 181.158L233.587 181.855Z" fill="white"/>
<path d="M254.357 176.459C254.46 176.304 254.528 176.128 254.556 175.944C254.584 175.76 254.572 175.572 254.521 175.393C254.469 175.214 254.379 175.049 254.257 174.909C254.135 174.769 253.984 174.658 253.815 174.583L253.874 171.671L252.127 171.203L252.1 175.316C251.993 175.611 251.998 175.935 252.114 176.226C252.229 176.517 252.446 176.756 252.724 176.897C253.002 177.038 253.322 177.071 253.623 176.99C253.924 176.91 254.185 176.72 254.357 176.459Z" fill="#FFB7B7"/>
<path d="M259.695 206.649L261.466 203.191C264.735 203.733 265.312 203.622 268.168 203.249L268.927 207.001C265.873 206.535 262.776 206.417 259.695 206.649Z" fill="#4A91F2"/>
<path d="M267.079 206.026L267.023 204.082L267.226 204.09L267.282 206.034L267.079 206.026Z" fill="white"/>
<path d="M266.274 205.995L266.219 204.051L266.422 204.059L266.477 206.002L266.274 205.995Z" fill="white"/>
<path d="M265.462 205.963L265.406 204.02L265.609 204.027L265.665 205.971L265.462 205.963Z" fill="white"/>
<path d="M240.63 171.871C240.63 171.871 239.986 172.13 240.63 181.977L240.887 198.043H243.46L246.356 176.209L249.892 186.382L253.108 198.432L255.681 197.784C255.681 197.784 252.979 173.425 250.664 171.871C248.348 170.316 240.63 171.871 240.63 171.871Z" fill="#2F2E41"/>
<path d="M245.799 151.925C247.276 151.925 248.473 150.719 248.473 149.232C248.473 147.745 247.276 146.539 245.799 146.539C244.322 146.539 243.125 147.745 243.125 149.232C243.125 150.719 244.322 151.925 245.799 151.925Z" fill="#FFB8B8"/>
<path d="M248.354 153.601C248.354 153.601 246.038 152.435 243.852 153.213C241.665 153.99 240.507 154.897 240.507 154.897L241.922 162.412L239.992 172.518C239.992 172.518 249.898 171.74 250.798 172.518C251.699 173.295 251.699 171.611 251.699 171.611L250.927 162.023L252.342 155.933L248.354 153.601Z" fill="#3F3D56"/>
<path d="M243.53 149.047L244.096 150.503C244.328 151.1 244.593 151.739 245.137 152.072C245.808 152.483 246.705 152.283 247.354 151.837C247.938 151.436 248.387 150.865 248.639 150.201C248.891 149.536 248.936 148.809 248.766 148.118C248.596 147.427 248.221 146.805 247.69 146.335C247.159 145.866 246.498 145.571 245.796 145.49L245.769 145.978L245.175 145.477C245.131 145.552 245.071 145.617 244.998 145.666C244.926 145.715 244.843 145.747 244.757 145.76C244.671 145.772 244.583 145.764 244.5 145.737C244.416 145.711 244.341 145.665 244.277 145.604C244.433 145.93 244.253 146.327 243.993 146.577C243.674 146.883 242.76 147.252 242.798 147.8C242.823 148.166 243.382 148.668 243.53 149.047Z" fill="#2F2E41"/>
<path d="M238.586 176.628C238.728 176.509 238.842 176.359 238.921 176.191C238.999 176.022 239.04 175.838 239.04 175.652C239.041 175.465 239 175.281 238.922 175.112C238.844 174.943 238.73 174.794 238.589 174.674L239.458 171.897L237.91 170.953L236.738 174.893C236.554 175.146 236.469 175.458 236.498 175.77C236.527 176.083 236.669 176.373 236.897 176.587C237.125 176.801 237.422 176.923 237.734 176.931C238.045 176.938 238.348 176.831 238.586 176.628Z" fill="#FFB7B7"/>
<path d="M241.405 154.898H240.505C240.505 154.898 239.09 155.805 239.09 157.101C239.09 158.397 237.031 173.556 237.031 173.556L239.218 173.945L241.148 163.32L242.563 160.47L241.405 154.898Z" fill="#3F3D56"/>
<path d="M249.898 155.934H252.343C252.343 155.934 253.115 156.711 253.5 158.525C253.886 160.339 254.272 167.465 254.272 167.465L254.015 173.943H252.085L251.828 165.521L250.542 160.08L249.898 155.934Z" fill="#3F3D56"/>
</g>
<path d="M164.591 97.1369C164.591 98.5881 165.167 99.9799 166.193 101.006C167.219 102.032 168.611 102.609 170.062 102.609C171.514 102.609 172.906 102.032 173.932 101.006C174.958 99.9799 175.534 98.5881 175.534 97.1369C175.534 96.4183 175.393 95.7068 175.118 95.0429C174.843 94.379 174.44 93.7758 173.932 93.2677C173.424 92.7596 172.82 92.3565 172.156 92.0815C171.493 91.8065 170.781 91.665 170.062 91.665C169.344 91.665 168.632 91.8065 167.969 92.0815C167.305 92.3565 166.701 92.7596 166.193 93.2677C165.685 93.7758 165.282 94.379 165.007 95.0429C164.732 95.7068 164.591 96.4183 164.591 97.1369ZM179.705 76.4819C187.403 72.2425 191.312 66.0959 191.312 58.2175C191.312 44.6866 180.64 38.625 170.062 38.625C159.762 38.625 148.812 46.1103 148.812 59.9866C148.812 61.3955 149.372 62.7468 150.368 63.7431C151.365 64.7394 152.716 65.2991 154.125 65.2991C155.534 65.2991 156.885 64.7394 157.882 63.7431C158.878 62.7468 159.437 61.3955 159.437 59.9866C159.437 52.6075 164.947 49.25 170.062 49.25C174.031 49.25 180.688 50.4134 180.688 58.2175C180.688 60.9853 179.96 64.2153 174.583 67.1797C170.928 69.1825 164.75 74.3834 164.75 81.125C164.75 82.534 165.31 83.8852 166.306 84.8815C167.302 85.8778 168.654 86.4375 170.062 86.4375C171.471 86.4375 172.823 85.8778 173.819 84.8815C174.815 83.8852 175.375 82.534 175.375 81.125C175.375 80.1369 177.473 77.7091 179.705 76.4819Z" fill="white"/>
<defs>
<radialGradient id="paint0_radial_19657_21116" cx="0" cy="0" r="1" gradientUnits="userSpaceOnUse" gradientTransform="translate(167.071 160.263) rotate(145.398) scale(139.859 177.012)">
<stop stop-color="#474747"/>
<stop offset="1" stop-color="#121212" stop-opacity="0"/>
</radialGradient>
<linearGradient id="paint1_linear_19657_21116" x1="168.997" y1="1.81542" x2="165.754" y2="170.415" gradientUnits="userSpaceOnUse">
<stop stop-color="#121212" stop-opacity="0"/>
<stop offset="1" stop-color="#4A91F2"/>
</linearGradient>
<linearGradient id="paint2_linear_19657_21116" x1="170.107" y1="1.84162" x2="166.864" y2="170.441" gradientUnits="userSpaceOnUse">
<stop stop-color="#121212" stop-opacity="0"/>
<stop offset="1" stop-color="#4A91F2"/>
</linearGradient>
<linearGradient id="paint3_linear_19657_21116" x1="168.728" y1="1.81355" x2="165.493" y2="170.404" gradientUnits="userSpaceOnUse">
<stop stop-color="#121212" stop-opacity="0"/>
<stop offset="1" stop-color="#4A91F2"/>
</linearGradient>
<clipPath id="clip0_19657_21116">
<rect width="42" height="63" fill="white" transform="translate(227 144)"/>
</clipPath>
</defs>
</svg>
